<?xml version="1.0" encoding="utf-8"?>
<!-- Generator: Adobe Illustrator 27.0.1, SVG Export Plug-In . SVG Version: 6.00 Build 0)  -->
<svg version="1.1" id="Layer_1" xmlns="http://www.w3.org/2000/svg" xmlns:xlink="http://www.w3.org/1999/xlink" x="0px" y="0px"
	 viewBox="0 0 230.17 162.95" enable-background="new 0 0 230.17 162.95" xml:space="preserve">
<g>
	<path fill="#D9D9D9" d="M185.24,0H44.92C20.11,0,0,20.12,0,44.93v73.1c0,24.81,20.11,44.92,44.92,44.92h140.32
		c24.81,0,44.93-20.11,44.93-44.92v-73.1C230.17,20.12,210.05,0,185.24,0z M211.58,70.93c-6.74,6.75-16.06,10.92-26.35,10.92H44.93
		c-20.58,0-37.26-16.69-37.26-37.27c0-10.29,4.17-19.61,10.91-26.35c6.74-6.75,16.06-10.92,26.35-10.92h140.3
		c20.58,0,37.27,16.69,37.27,37.27C222.5,54.87,218.33,64.19,211.58,70.93z"/>
</g>
</svg>
