<?xml version="1.0" encoding="utf-8"?>
<!-- Generator: Adobe Illustrator 27.0.1, SVG Export Plug-In . SVG Version: 6.00 Build 0)  -->
<svg version="1.1" id="Layer_1" xmlns="http://www.w3.org/2000/svg" xmlns:xlink="http://www.w3.org/1999/xlink" x="0px" y="0px"
	 viewBox="0 0 89.85 162.96" enable-background="new 0 0 89.85 162.96" xml:space="preserve">
<path fill="#D9D9D9" d="M76.69,13.16C68.56,5.03,57.34,0,44.93,0C20.12,0,0,20.12,0,44.93v73.1c0,24.81,20.12,44.93,44.93,44.93
	s44.92-20.12,44.92-44.93v-73.1C89.85,32.53,84.82,21.29,76.69,13.16z M82.14,44.63c0,20.55-16.66,37.22-37.21,37.22
	c-20.56,0-37.22-16.67-37.22-37.22v-0.1c0-20.55,16.66-37.21,37.22-37.21c10.27,0,19.58,4.17,26.31,10.9
	c6.74,6.73,10.9,16.03,10.9,26.31V44.63z"/>
</svg>
