<?xml version="1.0" encoding="utf-8"?>
<!-- Generator: Adobe Illustrator 27.0.1, SVG Export Plug-In . SVG Version: 6.00 Build 0)  -->
<svg version="1.1" id="Layer_1" xmlns="http://www.w3.org/2000/svg" xmlns:xlink="http://www.w3.org/1999/xlink" x="0px" y="0px"
	 viewBox="0 0 22 22" enable-background="new 0 0 22 22" xml:space="preserve">
<g>
	<g>
		<g>
			<g>
				<circle fill="#1A1349" cx="11" cy="11" r="11"/>
			</g>
		</g>
	</g>
	<g>
		<path fill="#EFEEEF" d="M15.81,11.39c0.05-0.12,0.08-0.25,0.08-0.39c0-0.13-0.03-0.26-0.08-0.39c-0.05-0.12-0.12-0.23-0.22-0.32
			c0,0,0,0,0,0l-3.14-3.13c-0.39-0.39-1.02-0.39-1.42,0c-0.39,0.39-0.39,1.02,0,1.42L12.47,10H7.11c-0.55,0-1,0.45-1,1s0.45,1,1,1
			h5.36l-1.43,1.42c-0.39,0.39-0.39,1.02,0,1.41c0.2,0.2,0.45,0.29,0.71,0.29c0.25,0,0.51-0.1,0.71-0.29l3.14-3.13c0,0,0,0,0,0
			C15.69,11.62,15.76,11.51,15.81,11.39z"/>
	</g>
</g>
</svg>
