<?xml version="1.0" encoding="utf-8"?>
<!-- Generator: Adobe Illustrator 27.0.1, SVG Export Plug-In . SVG Version: 6.00 Build 0)  -->
<svg version="1.1" id="Layer_1" xmlns="http://www.w3.org/2000/svg" xmlns:xlink="http://www.w3.org/1999/xlink" x="0px" y="0px"
	 viewBox="0 0 48.84 40.58" enable-background="new 0 0 48.84 40.58" xml:space="preserve">
<g>
	<g>
		<path fill="#1A1349" d="M13.48,32.25l-3.86,0.24c-0.22,0.01-0.39,0.21-0.38,0.43c0.01,0.21,0.19,0.38,0.41,0.38h0.02l3.86-0.24
			c0.22-0.01,0.39-0.21,0.38-0.43C13.89,32.41,13.71,32.24,13.48,32.25z M11.86,30.73L8,30.97c-0.22,0.01-0.39,0.21-0.38,0.43
			c0.01,0.21,0.19,0.38,0.41,0.38c0.01,0,0.01,0,0.02,0l3.86-0.24c0.22-0.01,0.4-0.21,0.38-0.43
			C12.28,30.88,12.09,30.71,11.86,30.73z M20.07,17.01c-0.06-0.49-0.32-0.91-0.75-1.2c-0.74-0.51-1.8-0.56-2.46-0.39
			c-0.71,0.18-1.34,0.62-1.74,1.2c-0.39,0.56-0.48,1.19-0.25,1.72c0.19,0.43,0.58,0.78,1.14,0.99c0.37,0.14,0.77,0.21,1.17,0.21
			c0.7,0,1.41-0.22,1.96-0.64c0.56-0.42,0.91-1,0.94-1.6C20.08,17.2,20.08,17.1,20.07,17.01z M18.66,17.22
			c-0.01,0.17-0.15,0.37-0.37,0.54c-0.48,0.35-1.21,0.45-1.78,0.23c-0.21-0.08-0.32-0.18-0.35-0.23c-0.02-0.05,0.01-0.19,0.12-0.35
			c0.21-0.3,0.54-0.53,0.92-0.63c0.12-0.03,0.26-0.04,0.4-0.04c0.34,0,0.7,0.08,0.91,0.23c0.14,0.09,0.14,0.16,0.15,0.2V17.22z
			 M13.48,32.25l-3.86,0.24c-0.22,0.01-0.39,0.21-0.38,0.43c0.01,0.21,0.19,0.38,0.41,0.38h0.02l3.86-0.24
			c0.22-0.01,0.39-0.21,0.38-0.43C13.89,32.41,13.71,32.24,13.48,32.25z M12.29,31.1c-0.01-0.22-0.21-0.39-0.43-0.38L8,30.97
			c-0.22,0.01-0.39,0.21-0.38,0.43c0.01,0.21,0.19,0.38,0.41,0.38c0.01,0,0.01,0,0.02,0l3.86-0.24
			C12.13,31.52,12.31,31.33,12.29,31.1z M20.07,17.01c-0.06-0.49-0.32-0.91-0.75-1.2c-0.74-0.51-1.8-0.56-2.46-0.39
			c-0.71,0.18-1.34,0.62-1.74,1.2c-0.39,0.56-0.48,1.19-0.25,1.72c0.19,0.43,0.58,0.78,1.14,0.99c0.37,0.14,0.77,0.21,1.17,0.21
			c0.7,0,1.41-0.22,1.96-0.64c0.56-0.42,0.91-1,0.94-1.6C20.08,17.2,20.08,17.1,20.07,17.01z M18.66,17.22
			c-0.01,0.17-0.15,0.37-0.37,0.54c-0.48,0.35-1.21,0.45-1.78,0.23c-0.21-0.08-0.32-0.18-0.35-0.23c-0.02-0.05,0.01-0.19,0.12-0.35
			c0.21-0.3,0.54-0.53,0.92-0.63c0.12-0.03,0.26-0.04,0.4-0.04c0.34,0,0.7,0.08,0.91,0.23c0.14,0.09,0.14,0.16,0.15,0.2V17.22z
			 M32.27,11.32c-0.14-0.37-0.54-0.56-0.91-0.43c-0.77,0.28-1.56,0.39-1.57,0.39c-0.39,0.06-0.66,0.42-0.61,0.8
			c0.05,0.35,0.35,0.61,0.7,0.61c0.03,0,0.07,0,0.1,0c0.04,0,0.94-0.14,1.85-0.46C32.2,12.1,32.4,11.69,32.27,11.32z M35.34,25.77
			h-1.3c-0.39,0-0.71,0.32-0.71,0.71c0,0.39,0.32,0.71,0.71,0.71h1.3c0.39,0,0.71-0.32,0.71-0.71
			C36.06,26.09,35.74,25.77,35.34,25.77z M47.19,30.31c3.9-2.52-0.25-11.8-0.83-12.72l-0.12-0.19c-1.02-1.63-2.69-4.32-7.33-6.52
			c0.39-0.93,0.6-1.95,0.6-3.02c0-4.33-3.53-7.86-7.86-7.86c-4.34,0-7.87,3.53-7.87,7.86c0,2.31,1,4.39,2.59,5.83
			c-0.69,0.85-1.47,1.76-2.43,2.67c0.22-0.73,0.35-1.49,0.35-2.29c0-4.3-3.49-7.79-7.79-7.79c-4.3,0-7.79,3.49-7.79,7.79
			c0,2.42,1.11,4.58,2.84,6.01c-0.86-0.24-1.93,0.1-2.83,0.9c-0.75,0.66-1.46,1.74-1.22,2.81c0.07,0.33,0.23,0.62,0.44,0.88
			c-1.78,1.33-3.22,2.9-4.27,4.67c-1.91,0.44-3.13,0.9-3.23,0.94c-0.33,0.13-0.52,0.48-0.44,0.82c0.07,0.35,0.4,0.58,0.75,0.55
			c0.07,0,0.76-0.06,1.74,0.18c-0.01,0.03-0.02,0.07-0.03,0.1c-0.55,1.56-1.12,3.17-0.38,4.79c0.6,1.33,1.92,2.29,3.81,2.76
			c0.82,0.2,1.69,0.29,2.55,0.29c1.66,0,3.26-0.36,4.25-1.01h17.46c0.32,0.26,0.67,0.43,0.86,0.53c2.09,1.04,4.43,1.29,6.2,1.29
			c1.56,0,2.67-0.19,2.77-0.21c3.1-0.56,6.3-1.13,7.61-3.83c0.83-1.69,0.53-3.54,0.47-3.9C47.9,31.73,47.61,30.95,47.19,30.31z
			 M45.03,18.15l0.12,0.19c0.85,1.35,3.83,9.18,1.24,10.79c-1.34,0.84-2.01,0.75-2.16,0.58c-0.2-0.2-0.2-0.87,0.29-1.61
			c0.55-0.83,0.7-1.58,0.46-2.22c-0.15-0.39-0.41-0.64-0.66-0.81c0.3-0.83,0.47-1.73,0.47-2.67c0-4.3-3.49-7.79-7.79-7.79
			c-0.56,0-1.09,0.06-1.61,0.17c1.16-0.63,2.14-1.54,2.86-2.65C42.56,14.16,44.1,16.64,45.03,18.15z M43.37,22.4
			c0,3.51-2.86,6.36-6.37,6.36c-3.51,0-6.37-2.86-6.37-6.36c0-3.51,2.86-6.37,6.37-6.37C40.51,16.03,43.37,18.89,43.37,22.4z
			 M25.21,7.86c0-3.55,2.89-6.44,6.44-6.44c3.55,0,6.44,2.89,6.44,6.44c0,3.56-2.89,6.44-6.44,6.44
			C28.1,14.3,25.21,11.42,25.21,7.86z M27.52,14.55c1.2,0.75,2.62,1.18,4.14,1.18c0.56,0,1.11-0.06,1.64-0.17
			c-2.19,1.19-3.76,3.42-4.03,6.02c-1.71-1.73-3.91-2.73-5.36-3.26C25.36,17.07,26.51,15.79,27.52,14.55z M10.14,14.08
			c0-3.51,2.86-6.37,6.37-6.37c3.51,0,6.36,2.86,6.36,6.37c0,2.17-1.1,4.1-2.77,5.25c-0.03,0.02-0.06,0.04-0.09,0.05
			c-0.01,0.01-0.02,0.02-0.03,0.02c-1,0.66-2.2,1.04-3.48,1.04C13,20.44,10.14,17.59,10.14,14.08z M9.68,22.05
			c0.44-0.39,0.94-0.62,1.32-0.62c0.08,0,0.16,0.01,0.23,0.04c0.35,0.13,0.7,0.67,0.84,1.32c0.13,0.65,0.02,1.28-0.27,1.55
			c-0.3,0.28-0.95,0.33-1.62,0.12c-0.65-0.2-1.18-0.61-1.26-0.98C8.83,23.12,9.15,22.52,9.68,22.05z M12.04,37.49
			c-0.94,0.73-3.55,1.16-5.8,0.61c-1.01-0.25-2.33-0.79-2.86-1.96c-0.49-1.1-0.07-2.32,0.43-3.73c0.01-0.04,0.03-0.07,0.04-0.11
			c0.99,0.45,2.08,1.2,3.09,2.45c-0.46,0.21-0.79,0.39-0.9,0.45c-0.34,0.19-0.46,0.63-0.27,0.97c0.2,0.34,0.63,0.46,0.97,0.27
			c0.98-0.56,3.8-1.79,5.1-0.78c0.36,0.28,0.77,0.73,0.74,1.12C12.55,37.09,12.19,37.37,12.04,37.49z M13.9,37.34
			c0.05-0.14,0.08-0.28,0.1-0.44c0.09-1.01-0.6-1.79-1.07-2.2l1.8-0.11c0.22-0.01,0.39-0.21,0.38-0.43c-0.01-0.22-0.2-0.4-0.43-0.38
			l-3.12,0.2c-1.05-0.27-2.23-0.07-3.24,0.25c-1.42-1.93-3.06-2.93-4.45-3.45c2.12-0.5,5.18-0.99,8.43-0.79
			c0.43,0.02,0.84,0.16,1.19,0.38c2.14,1.39,4.02,3.73,5.58,6.98H13.9z M25.34,37.34h-4.7c-1.74-3.8-3.88-6.55-6.38-8.17
			c-0.56-0.35-1.2-0.56-1.87-0.61c-2.47-0.15-4.8,0.07-6.74,0.4c0.91-1.23,2.04-2.34,3.39-3.32c0.03-0.02,0.06-0.05,0.08-0.07
			c0.21,0.11,0.42,0.19,0.63,0.26c0.42,0.13,0.83,0.19,1.22,0.19c0.71,0,1.34-0.21,1.79-0.63c0.68-0.63,0.93-1.7,0.7-2.88
			c-0.13-0.64-0.4-1.21-0.75-1.63c1.13,0.63,2.43,1,3.81,1c1.62,0,3.13-0.5,4.38-1.35c0.6-0.37,1.16-0.75,1.68-1.14
			c1.33,0.4,5.06,1.73,6.82,4.64c0.2,0.92,0.56,1.79,1.05,2.57c-0.5,0.33-1.25,0.91-2.02,1.79c-4.51-2.59-7.13-0.99-7.91-0.36
			c-1.75,0.08-2.89,0.66-3.06,1.6c-0.07,0.4,0.06,0.82,0.35,1.18c0.6,0.73,1.76,0.9,3.12,0.48c0.19,0.47,0.51,1.03,1.08,1.45
			c0.53,0.4,1.17,0.6,1.9,0.6c0.24,0,0.49-0.02,0.75-0.07c0.63-0.1,1.05-0.43,1.35-0.68c0.01,0,0.02-0.01,0.03-0.02
			C25.61,33.89,25.33,35.48,25.34,37.34z M25.13,31.46c-0.24,0.2-0.43,0.35-0.7,0.39c-0.65,0.11-1.18,0.02-1.56-0.27
			c-0.63-0.46-0.76-1.33-0.76-1.33c-0.03-0.22-0.16-0.42-0.35-0.53c-0.19-0.11-0.43-0.12-0.63-0.03c-1.19,0.52-2.02,0.43-2.21,0.2
			c-0.01-0.01-0.02-0.03-0.02-0.04c0.17-0.15,0.78-0.41,1.92-0.42c0.2,0,0.38-0.08,0.51-0.23c0.02-0.02,1.97-2.06,6.22,0.31
			c-0.28,0.42-0.56,0.88-0.82,1.39C25.99,30.79,25.49,31.18,25.13,31.46z M46.34,35.91c-1,2.06-3.84,2.57-6.59,3.07
			c-0.04,0-4.59,0.79-8.08-0.95c-0.4-0.2-0.61-0.35-0.71-0.46c-0.01-0.01-0.02-0.02-0.04-0.03c-0.07-0.08-0.07-0.12-0.07-0.13
			c0,0,0-0.08,0.19-0.27c0.51-0.51,1.64-0.49,3.19-0.48c1.11,0.01,2.49,0.03,4.1-0.14c0.96-0.1,1.89-0.25,2.76-0.91
			c0.85-0.65,1.44-1.65,1.72-2.89c0.09-0.38-0.15-0.76-0.54-0.85c-0.38-0.08-0.77,0.16-0.85,0.54c-0.21,0.92-0.61,1.62-1.19,2.07
			c-0.53,0.41-1.1,0.53-2.04,0.63c-1.53,0.16-2.8,0.14-3.93,0.13c-1.89-0.02-3.27-0.04-4.2,0.88c-0.39,0.39-0.6,0.79-0.62,1.22
			h-2.66c-0.06-6.13,3.4-8.88,4.55-9.63c1.42,1.52,3.45,2.48,5.69,2.48c2.82,0,5.29-1.51,6.66-3.76c0.02,0.1,0.01,0.36-0.33,0.88
			c-0.82,1.23-0.87,2.63-0.13,3.39c0.25,0.26,0.69,0.55,1.39,0.55c0.37,0,0.81-0.08,1.32-0.28c0.25,0.36,0.58,0.97,0.77,1.95
			C46.71,33.07,46.98,34.59,46.34,35.91z M35.34,25.77h-1.3c-0.39,0-0.71,0.32-0.71,0.71c0,0.39,0.32,0.71,0.71,0.71h1.3
			c0.39,0,0.71-0.32,0.71-0.71C36.06,26.09,35.74,25.77,35.34,25.77z M29.88,12.69c0.03,0,0.07,0,0.1,0c0.04,0,0.94-0.14,1.85-0.46
			c0.37-0.13,0.56-0.54,0.43-0.91c-0.14-0.37-0.54-0.56-0.91-0.43c-0.77,0.28-1.56,0.39-1.57,0.39c-0.39,0.06-0.66,0.42-0.61,0.8
			C29.23,12.43,29.54,12.69,29.88,12.69z M16,19.32c0.37,0.14,0.77,0.21,1.17,0.21c0.7,0,1.41-0.22,1.96-0.64
			c0.56-0.42,0.91-1,0.94-1.6c0-0.1,0-0.2-0.01-0.29c-0.06-0.49-0.32-0.91-0.75-1.2c-0.74-0.51-1.8-0.56-2.46-0.39
			c-0.71,0.18-1.34,0.62-1.74,1.2c-0.39,0.56-0.48,1.19-0.25,1.72C15.05,18.76,15.45,19.11,16,19.32z M16.29,17.41
			c0.21-0.3,0.54-0.53,0.92-0.63c0.12-0.03,0.26-0.04,0.4-0.04c0.34,0,0.7,0.08,0.91,0.23c0.14,0.09,0.14,0.16,0.15,0.2v0.05
			c-0.01,0.17-0.15,0.37-0.37,0.54c-0.48,0.35-1.21,0.45-1.78,0.23c-0.21-0.08-0.32-0.18-0.35-0.23
			C16.15,17.72,16.17,17.57,16.29,17.41z M13.48,32.25l-3.86,0.24c-0.22,0.01-0.39,0.21-0.38,0.43c0.01,0.21,0.19,0.38,0.41,0.38
			h0.02l3.86-0.24c0.22-0.01,0.39-0.21,0.38-0.43C13.89,32.41,13.71,32.24,13.48,32.25z M12.29,31.1c-0.01-0.22-0.21-0.39-0.43-0.38
			L8,30.97c-0.22,0.01-0.39,0.21-0.38,0.43c0.01,0.21,0.19,0.38,0.41,0.38c0.01,0,0.01,0,0.02,0l3.86-0.24
			C12.13,31.52,12.31,31.33,12.29,31.1z M35.34,25.77h-1.3c-0.39,0-0.71,0.32-0.71,0.71c0,0.39,0.32,0.71,0.71,0.71h1.3
			c0.39,0,0.71-0.32,0.71-0.71C36.06,26.09,35.74,25.77,35.34,25.77z M32.27,11.32c-0.14-0.37-0.54-0.56-0.91-0.43
			c-0.77,0.28-1.56,0.39-1.57,0.39c-0.39,0.06-0.66,0.42-0.61,0.8c0.05,0.35,0.35,0.61,0.7,0.61c0.03,0,0.07,0,0.1,0
			c0.04,0,0.94-0.14,1.85-0.46C32.2,12.1,32.4,11.69,32.27,11.32z"/>
	</g>
	<path fill="#6168B0" d="M13.9,37.34h5.18c-1.57-3.25-3.44-5.59-5.58-6.98c-0.35-0.22-0.76-0.36-1.19-0.38
		c-3.25-0.2-6.31,0.29-8.43,0.79c1.39,0.52,3.03,1.52,4.45,3.45c1.01-0.31,2.19-0.51,3.24-0.25l3.12-0.2
		c0.23-0.01,0.42,0.16,0.43,0.38c0.01,0.22-0.15,0.42-0.38,0.43l-1.8,0.11c0.47,0.41,1.16,1.19,1.07,2.2
		C13.98,37.06,13.94,37.2,13.9,37.34z M8.05,31.78c-0.01,0-0.01,0-0.02,0c-0.21,0-0.39-0.17-0.41-0.38
		C7.61,31.17,7.78,30.98,8,30.97l3.86-0.24c0.23-0.01,0.42,0.15,0.43,0.38c0.01,0.22-0.16,0.42-0.38,0.43L8.05,31.78z M13.53,33.06
		L9.67,33.3H9.65c-0.21,0-0.39-0.16-0.41-0.38c-0.01-0.22,0.15-0.42,0.38-0.43l3.86-0.24c0.23-0.01,0.42,0.15,0.43,0.38
		C13.92,32.85,13.75,33.04,13.53,33.06z"/>
</g>
</svg>
