<?xml version="1.0" encoding="utf-8"?>
<!-- Generator: Adobe Illustrator 27.0.1, SVG Export Plug-In . SVG Version: 6.00 Build 0)  -->
<svg version="1.1" id="Layer_1" xmlns="http://www.w3.org/2000/svg" xmlns:xlink="http://www.w3.org/1999/xlink" x="0px" y="0px"
	 viewBox="0 0 22 22" enable-background="new 0 0 22 22" xml:space="preserve">
<g>
	<g>
		<path fill="#EEEEF0" d="M15.65,9.47h-1.92c-0.67,0-1.21-0.54-1.21-1.21V6.34c0-0.84-0.63-1.59-1.46-1.63
			c-0.88-0.04-1.6,0.66-1.6,1.53v2.01c0,0.67-0.54,1.21-1.21,1.21H6.33c-0.84,0-1.59,0.63-1.63,1.46c-0.04,0.88,0.66,1.6,1.53,1.6
			h2.01c0.67,0,1.21,0.54,1.21,1.21v1.92c0,0.84,0.63,1.59,1.46,1.63c0.88,0.04,1.6-0.66,1.6-1.53v-2.01c0-0.67,0.54-1.21,1.21-1.21
			h2.01c0.87,0,1.57-0.72,1.53-1.6C17.25,10.1,16.49,9.47,15.65,9.47z"/>
	</g>
</g>
</svg>
