<?xml version="1.0" encoding="utf-8"?>
<!-- Generator: Adobe Illustrator 27.0.1, SVG Export Plug-In . SVG Version: 6.00 Build 0)  -->
<svg version="1.1" id="Layer_1" xmlns="http://www.w3.org/2000/svg" xmlns:xlink="http://www.w3.org/1999/xlink" x="0px" y="0px"
	 viewBox="0 0 1366 660" enable-background="new 0 0 1366 660" xml:space="preserve">
<g>
	<g>
		<rect fill="#EFEEEF" width="1366" height="660"/>
	</g>
	<g>
		<g>
			<path fill="#1A1349" d="M524.56,50.8h-5.89v-2.93h14.71v2.93h-5.89v15.66h-2.93V50.8z"/>
			<path fill="#1A1349" d="M542.51,64.65c-1.34,1.31-3.27,2.08-5.58,2.08c-4.64,0-7.72-3.02-7.72-7.54s3.08-7.54,7.72-7.54
				s7.72,3.02,7.72,7.54c0,0.46-0.03,0.92-0.09,1.37h-12.3c0.55,1.98,2.29,3.27,4.67,3.27c1.46,0,2.62-0.46,3.48-1.25L542.51,64.65z
				 M541.59,57.91c-0.52-2.04-2.26-3.36-4.67-3.36c-2.41,0-4.18,1.31-4.67,3.36H541.59z"/>
			<path fill="#1A1349" d="M548.89,66.45h-2.9V46.8h2.9V66.45z"/>
			<path fill="#1A1349" d="M553.13,66.45h-2.9V46.8h2.9V66.45z"/>
			<path fill="#1A1349" d="M564.58,51.93h2.9v7.57c0,3.42,1.98,4.46,3.94,4.46c1.98,0,3.94-1.28,3.94-4.46v-7.57h2.93v14.53h-2.93
				v-2.99h-0.31c-0.46,2.08-2.53,3.27-4.55,3.27c-2.96,0-5.92-1.86-5.92-6.96V51.93z"/>
			<path fill="#1A1349" d="M593.72,62.06c0,6.1-14.13,6.81-14.13-0.4h3.17c0,2.93,8.06,2.93,8.06,0.43c0-3.14-11.2,0.58-11.2-6.1
				c0-5.8,13.52-5.98,13.52,0.21h-3.2c0-2.17-7.39-2.32-7.39-0.15C582.55,59.4,593.72,55.83,593.72,62.06z"/>
			<path fill="#1A1349" d="M611.85,51.65c4.36,0,5.13,3.27,5.13,3.27h0.27v-2.99h2.93v14.53h-2.93v-3.08h-0.27
				c0,0-0.76,3.36-5.13,3.36c-4.03,0-6.68-3.02-6.68-7.57C605.17,54.61,607.82,51.65,611.85,51.65z M612.68,63.8
				c2.75,0,4.58-1.86,4.58-4.64c0-2.81-1.83-4.67-4.58-4.67c-2.78,0-4.61,1.86-4.61,4.67C608.07,61.94,609.9,63.8,612.68,63.8z"/>
			<path fill="#1A1349" d="M629.86,66.73c-4.36,0-5.13-3.36-5.13-3.36h-0.31v3.08h-2.9V47.08h2.9v7.84h0.31c0,0,0.76-3.27,5.13-3.27
				c4.03,0,6.68,2.96,6.68,7.51C636.54,63.71,633.89,66.73,629.86,66.73z M629.04,54.49c-2.78,0-4.61,1.86-4.61,4.67
				c0,2.78,1.83,4.64,4.61,4.64c2.75,0,4.58-1.86,4.58-4.64C633.61,56.35,631.78,54.49,629.04,54.49z"/>
			<path fill="#1A1349" d="M645.67,51.65c4.67,0,7.78,3.02,7.78,7.54s-3.11,7.54-7.78,7.54s-7.78-3.02-7.78-7.54
				S641,51.65,645.67,51.65z M645.67,63.83c2.9,0,4.85-1.86,4.85-4.64s-1.95-4.64-4.85-4.64c-2.93,0-4.88,1.86-4.88,4.64
				S642.74,63.83,645.67,63.83z"/>
			<path fill="#1A1349" d="M654.77,51.93h2.9v7.57c0,3.42,1.98,4.46,3.94,4.46c1.98,0,3.94-1.28,3.94-4.46v-7.57h2.93v14.53h-2.93
				v-2.99h-0.3c-0.46,2.08-2.53,3.27-4.55,3.27c-2.96,0-5.92-1.86-5.92-6.96V51.93z"/>
			<path fill="#1A1349" d="M669.78,51.65h2.11v-4.58h2.93v3.3c0,0.85-0.7,1.04-1.04,1.04h-0.03v0.24h4v2.93h-2.93v7.51
				c0,0.98,0.43,1.4,3.14,1.4v2.93c-4.12,0-6.07-1.07-6.07-4.33v-7.51h-2.11V51.65z"/>
			<path fill="#1A1349" d="M700.15,51.93h2.93l-6.2,16.66c-1.13,3.08-1.95,4.33-6.04,4.33v-2.9c2.69,0,2.78-0.52,3.11-1.43
				l0.79-2.14l-5.37-14.53h2.9l3.57,9.58c0.15,0.43,0.24,0.85,0.24,1.31v0.12h0.27v-0.12c0-0.46,0.06-0.89,0.21-1.31L700.15,51.93z"
				/>
			<path fill="#1A1349" d="M710.65,51.65c4.67,0,7.78,3.02,7.78,7.54s-3.11,7.54-7.78,7.54c-4.67,0-7.78-3.02-7.78-7.54
				S705.98,51.65,710.65,51.65z M710.65,63.83c2.9,0,4.85-1.86,4.85-4.64s-1.95-4.64-4.85-4.64c-2.93,0-4.88,1.86-4.88,4.64
				S707.72,63.83,710.65,63.83z"/>
			<path fill="#1A1349" d="M719.75,51.93h2.9v7.57c0,3.42,1.98,4.46,3.94,4.46c1.98,0,3.94-1.28,3.94-4.46v-7.57h2.93v14.53h-2.93
				v-2.99h-0.31c-0.46,2.08-2.53,3.27-4.55,3.27c-2.96,0-5.92-1.86-5.92-6.96V51.93z"/>
			<path fill="#1A1349" d="M743.19,55.13c-0.52-0.21-1.07-0.31-1.65-0.31c-1.98,0-3.88,0.92-3.88,4.06v7.57h-2.9V51.93h2.9v2.99
				h0.31c0.49-2.08,2.29-2.99,4.3-2.99c0.49,0,1.04,0.06,1.56,0.18L743.19,55.13z"/>
			<path fill="#1A1349" d="M763.61,66.73c-4.36,0-5.13-3.36-5.13-3.36h-0.3v3.08h-2.9V47.08h2.9v7.84h0.3c0,0,0.76-3.27,5.13-3.27
				c4.03,0,6.68,2.96,6.68,7.51C770.29,63.71,767.64,66.73,763.61,66.73z M762.78,54.49c-2.78,0-4.61,1.86-4.61,4.67
				c0,2.78,1.83,4.64,4.61,4.64c2.75,0,4.58-1.86,4.58-4.64C767.36,56.35,765.53,54.49,762.78,54.49z"/>
			<path fill="#1A1349" d="M771.64,51.93h2.9v7.57c0,3.42,1.98,4.46,3.94,4.46c1.98,0,3.94-1.28,3.94-4.46v-7.57h2.93v14.53h-2.93
				v-2.99h-0.31c-0.46,2.08-2.53,3.27-4.55,3.27c-2.96,0-5.92-1.86-5.92-6.96V51.93z"/>
			<path fill="#1A1349" d="M800.78,62.06c0,6.1-14.13,6.81-14.13-0.4h3.17c0,2.93,8.06,2.93,8.06,0.43c0-3.14-11.2,0.58-11.2-6.1
				c0-5.8,13.52-5.98,13.52,0.21H797c0-2.17-7.38-2.32-7.38-0.15C789.61,59.4,800.78,55.83,800.78,62.06z"/>
			<path fill="#1A1349" d="M803.84,47.59c1.04,0,1.74,0.7,1.74,1.74c0,1.04-0.7,1.71-1.74,1.71c-1.04,0-1.71-0.67-1.71-1.71
				C802.13,48.3,802.8,47.59,803.84,47.59z M802.37,51.93h2.93v14.53h-2.93V51.93z"/>
			<path fill="#1A1349" d="M820.62,66.45h-2.93v-7.57c0-3.42-1.95-4.46-3.94-4.46c-1.95,0-3.94,1.31-3.94,4.46v7.57h-2.9V51.93h2.9
				v2.99h0.31c0.49-2.08,2.56-3.27,4.58-3.27c2.93,0,5.92,1.86,5.92,6.96V66.45z"/>
			<path fill="#1A1349" d="M835.24,64.65c-1.34,1.31-3.27,2.08-5.59,2.08c-4.64,0-7.72-3.02-7.72-7.54s3.08-7.54,7.72-7.54
				s7.72,3.02,7.72,7.54c0,0.46-0.03,0.92-0.09,1.37h-12.3c0.55,1.98,2.29,3.27,4.67,3.27c1.46,0,2.62-0.46,3.48-1.25L835.24,64.65z
				 M834.33,57.91c-0.52-2.04-2.26-3.36-4.67-3.36c-2.41,0-4.18,1.31-4.67,3.36H834.33z"/>
			<path fill="#1A1349" d="M852.85,62.06c0,6.1-14.13,6.81-14.13-0.4h3.17c0,2.93,8.06,2.93,8.06,0.43c0-3.14-11.2,0.58-11.2-6.1
				c0-5.8,13.52-5.98,13.52,0.21h-3.21c0-2.17-7.38-2.32-7.38-0.15C841.68,59.4,852.85,55.83,852.85,62.06z"/>
			<path fill="#1A1349" d="M868.33,62.06c0,6.1-14.13,6.81-14.13-0.4h3.17c0,2.93,8.06,2.93,8.06,0.43c0-3.14-11.2,0.58-11.2-6.1
				c0-5.8,13.52-5.98,13.52,0.21h-3.2c0-2.17-7.38-2.32-7.38-0.15C857.16,59.4,868.33,55.83,868.33,62.06z"/>
		</g>
		<path fill="#D9D9D9" d="M644.75,190h-360c-15.46,0-28-12.54-28-28v0c0-15.46,12.54-28,28-28h360c15.46,0,28,12.54,28,28v0
			C672.75,177.46,660.21,190,644.75,190z"/>
		<path fill="#D9D9D9" d="M1081.25,190h-360c-15.46,0-28-12.54-28-28v0c0-15.46,12.54-28,28-28h360c15.46,0,28,12.54,28,28v0
			C1109.25,177.46,1096.71,190,1081.25,190z"/>
		<g>
			<g>
				<path fill="#BABAC9" d="M286.26,155.5h1.62l6.5,9.12v-9.12h1.25v11.2h-1.25l-6.87-9.65v9.65h-1.25V155.5z"/>
				<path fill="#BABAC9" d="M297.33,162.69c0-2.5,1.62-4.24,4.07-4.24c1.54,0,2.62,0.69,3.22,1.82v-1.57h1.09v8h-1.09v-1.58
					c-0.59,1.14-1.68,1.84-3.22,1.84C298.95,166.96,297.33,165.19,297.33,162.69z M304.61,162.67c0-1.9-1.3-3.2-3.14-3.2
					c-1.81,0-2.93,1.3-2.93,3.2s1.12,3.27,2.93,3.27C303.32,165.94,304.61,164.58,304.61,162.67z"/>
				<path fill="#BABAC9" d="M307.57,158.7h1.15v1.58c0.46-0.88,1.33-1.84,2.87-1.84c1.82,0,2.62,1.18,2.96,2.27
					c0.38-0.91,1.23-2.27,3.1-2.27c2.55,0,3.17,1.78,3.17,3.43v4.83h-1.15v-4.51c0-1.15-0.19-2.72-2.02-2.72
					c-2.15,0-2.88,1.98-2.88,3.41v3.83h-1.15v-4.35c0-1.15-0.35-2.87-2.19-2.87c-1.73,0-2.61,1.44-2.71,2.77v4.45h-1.15V158.7z"/>
				<path fill="#BABAC9" d="M322.05,162.67c0-2.48,1.76-4.23,4.4-4.23c2.54,0,4.21,1.62,4.21,4.5h-7.43
					c0.11,1.76,1.39,2.99,3.14,2.99c1.49,0,2.66-0.75,3.04-2h1.15c-0.5,1.86-2.13,3.02-4.23,3.02
					C323.81,166.96,322.05,165.19,322.05,162.67z M329.45,161.95c-0.26-1.5-1.34-2.48-2.95-2.48c-1.41,0-2.9,0.7-3.22,2.48H329.45z"
					/>
				<path fill="#BABAC9" d="M335.49,160.58l1.44-1.92l-1.94-0.82l0.27-0.77l1.87,0.78v-2.35H338v2.35l1.87-0.78l0.27,0.77
					l-1.94,0.82l1.44,1.92l-0.7,0.43l-1.38-1.9l-1.38,1.9L335.49,160.58z"/>
			</g>
		</g>
		<g>
			<g>
				<path fill="#BABAC9" d="M730.26,156.12h5.46c2.32,0,3.75,1.04,3.75,2.69c0,1.17-0.77,2-2.19,2.35v0.08
					c1.54,0.35,2.51,1.28,2.51,2.79c0,2-1.65,3.3-4.23,3.3h-5.3V156.12z M738.15,158.81c0-1.04-0.82-1.65-2.43-1.65h-4.21v3.57h4.05
					C737.24,160.73,738.15,159.88,738.15,158.81z M738.47,164.02c0-1.26-0.91-2.26-2.91-2.26h-4.05v4.51h4.05
					C737.56,166.28,738.47,165.29,738.47,164.02z"/>
				<path fill="#BABAC9" d="M741.06,164.02v-4.71h1.15v4.61c0,1.95,0.91,2.62,2.38,2.62c1.78,0,2.85-1.23,2.85-3.25v-3.99h1.15v8
					h-1.15v-1.58c-0.66,1.22-1.67,1.84-3.03,1.84C742.23,167.58,741.06,166.31,741.06,164.02z"/>
				<path fill="#BABAC9" d="M749.99,164.7h1.15c0,0.94,0.54,1.87,2.45,1.87c1.74,0,2.46-0.66,2.46-1.41c0-2.11-5.87-0.51-5.87-3.65
					c0-1.49,1.17-2.45,3.23-2.45c2.11,0,3.63,1.01,3.63,2.85h-1.15c0-1.18-1.06-1.82-2.51-1.82c-1.31,0-2.05,0.54-2.05,1.3
					c0,2.18,5.87,0.3,5.87,3.68c0,1.7-1.49,2.53-3.62,2.53C751.25,167.59,749.99,166.54,749.99,164.7z"/>
				<path fill="#BABAC9" d="M758.55,156.12h1.25v1.62h-1.25V156.12z M758.6,159.32h1.15v8h-1.15V159.32z"/>
				<path fill="#BABAC9" d="M761.67,159.32h1.15v1.58c0.66-1.22,1.67-1.84,3.03-1.84c2.19,0,3.36,1.26,3.36,3.55v4.71h-1.15v-4.61
					c0-1.79-0.91-2.62-2.38-2.62c-1.78,0-2.85,1.23-2.85,3.25v3.99h-1.15V159.32z"/>
				<path fill="#BABAC9" d="M770.43,163.29c0-2.48,1.76-4.23,4.4-4.23c2.54,0,4.21,1.62,4.21,4.5h-7.43
					c0.11,1.76,1.39,2.99,3.14,2.99c1.49,0,2.66-0.75,3.04-2h1.15c-0.5,1.86-2.13,3.02-4.23,3.02
					C772.2,167.58,770.43,165.8,770.43,163.29z M777.83,162.57c-0.26-1.5-1.34-2.48-2.95-2.48c-1.41,0-2.9,0.7-3.22,2.48H777.83z"/>
				<path fill="#BABAC9" d="M779.67,164.7h1.15c0,0.94,0.54,1.87,2.45,1.87c1.74,0,2.46-0.66,2.46-1.41c0-2.11-5.88-0.51-5.88-3.65
					c0-1.49,1.17-2.45,3.23-2.45c2.11,0,3.63,1.01,3.63,2.85h-1.15c0-1.18-1.06-1.82-2.51-1.82c-1.31,0-2.05,0.54-2.05,1.3
					c0,2.18,5.88,0.3,5.88,3.68c0,1.7-1.49,2.53-3.62,2.53C780.93,167.59,779.67,166.54,779.67,164.7z"/>
				<path fill="#BABAC9" d="M787.75,164.7h1.15c0,0.94,0.54,1.87,2.45,1.87c1.74,0,2.46-0.66,2.46-1.41c0-2.11-5.88-0.51-5.88-3.65
					c0-1.49,1.17-2.45,3.23-2.45c2.11,0,3.63,1.01,3.63,2.85h-1.15c0-1.18-1.06-1.82-2.51-1.82c-1.31,0-2.05,0.54-2.05,1.3
					c0,2.18,5.88,0.3,5.88,3.68c0,1.7-1.49,2.53-3.62,2.53C789.01,167.59,787.75,166.54,787.75,164.7z"/>
				<path fill="#BABAC9" d="M799.78,156.12h1.62l6.5,9.12v-9.12h1.25v11.2h-1.25l-6.87-9.65v9.65h-1.25V156.12z"/>
				<path fill="#BABAC9" d="M810.85,163.3c0-2.5,1.62-4.24,4.07-4.24c1.54,0,2.62,0.69,3.22,1.82v-1.57h1.09v8h-1.09v-1.58
					c-0.59,1.14-1.68,1.84-3.22,1.84C812.47,167.58,810.85,165.8,810.85,163.3z M818.13,163.29c0-1.9-1.3-3.2-3.14-3.2
					c-1.81,0-2.93,1.3-2.93,3.2s1.12,3.27,2.93,3.27C816.84,166.55,818.13,165.19,818.13,163.29z"/>
				<path fill="#BABAC9" d="M821.09,159.32h1.15v1.58c0.46-0.88,1.33-1.84,2.87-1.84c1.82,0,2.62,1.18,2.96,2.27
					c0.38-0.91,1.23-2.27,3.11-2.27c2.54,0,3.17,1.78,3.17,3.43v4.83h-1.15v-4.51c0-1.15-0.19-2.72-2.02-2.72
					c-2.15,0-2.88,1.98-2.88,3.41v3.83h-1.15v-4.35c0-1.15-0.35-2.87-2.19-2.87c-1.73,0-2.61,1.44-2.71,2.77v4.45h-1.15V159.32z"/>
				<path fill="#BABAC9" d="M835.57,163.29c0-2.48,1.76-4.23,4.4-4.23c2.54,0,4.21,1.62,4.21,4.5h-7.43
					c0.11,1.76,1.39,2.99,3.14,2.99c1.49,0,2.66-0.75,3.04-2h1.15c-0.5,1.86-2.13,3.02-4.23,3.02
					C837.33,167.58,835.57,165.8,835.57,163.29z M842.97,162.57c-0.26-1.5-1.34-2.48-2.95-2.48c-1.41,0-2.9,0.7-3.22,2.48H842.97z"
					/>
				<path fill="#BABAC9" d="M854.64,162.34c0-2.3,0.74-4.59,2.08-6.87h1.04c-1.52,2.27-2.08,4.56-2.08,6.87
					c0,2.32,0.56,4.56,2.08,6.87h-1.04C855.38,166.91,854.64,164.66,854.64,162.34z"/>
				<path fill="#BABAC9" d="M858.8,161.69c0-3.41,2.47-5.81,5.84-5.81s5.86,2.4,5.86,5.81c0,3.47-2.48,5.91-5.86,5.91
					S858.8,165.16,858.8,161.69z M869.19,161.69c0-2.82-1.84-4.77-4.55-4.77s-4.53,1.95-4.53,4.77c0,2.88,1.83,4.87,4.53,4.87
					S869.19,164.57,869.19,161.69z"/>
				<path fill="#BABAC9" d="M872.18,159.32h1.15v1.57c0.59-1.14,1.68-1.82,3.22-1.82c2.45,0,4.07,1.74,4.07,4.24
					s-1.62,4.27-4.07,4.27c-1.54,0-2.62-0.7-3.22-1.84v4.79h-1.15V159.32z M879.4,163.29c0-1.9-1.12-3.2-2.93-3.2
					c-1.84,0-3.14,1.3-3.14,3.2s1.3,3.27,3.14,3.27C878.28,166.55,879.4,165.19,879.4,163.29z"/>
				<path fill="#BABAC9" d="M882.8,166.44v-6.13h-1.76v-0.99h1.76v-2.08h1.15v2.08h2.48v0.99h-2.48v6.02h2.48v0.99h-2.77
					C883.12,167.32,882.8,167,882.8,166.44z"/>
				<path fill="#BABAC9" d="M887.67,156.12h1.25v1.62h-1.25V156.12z M887.71,159.32h1.15v8h-1.15V159.32z"/>
				<path fill="#BABAC9" d="M890.26,163.29c0-2.46,1.9-4.23,4.35-4.23s4.37,1.76,4.37,4.23s-1.92,4.29-4.37,4.29
					S890.26,165.75,890.26,163.29z M897.76,163.29c0-1.87-1.38-3.2-3.15-3.2c-1.78,0-3.14,1.33-3.14,3.2c0,1.87,1.36,3.27,3.14,3.27
					C896.39,166.55,897.76,165.16,897.76,163.29z"/>
				<path fill="#BABAC9" d="M900.37,159.32h1.15v1.58c0.66-1.22,1.67-1.84,3.03-1.84c2.19,0,3.36,1.26,3.36,3.55v4.71h-1.15v-4.61
					c0-1.79-0.91-2.62-2.38-2.62c-1.78,0-2.85,1.23-2.85,3.25v3.99h-1.15V159.32z"/>
				<path fill="#BABAC9" d="M909.14,163.3c0-2.5,1.62-4.24,4.07-4.24c1.54,0,2.62,0.69,3.22,1.82v-1.57h1.09v8h-1.09v-1.58
					c-0.59,1.14-1.68,1.84-3.22,1.84C910.75,167.58,909.14,165.8,909.14,163.3z M916.42,163.29c0-1.9-1.3-3.2-3.14-3.2
					c-1.81,0-2.93,1.3-2.93,3.2s1.12,3.27,2.93,3.27C915.12,166.55,916.42,165.19,916.42,163.29z"/>
				<path fill="#BABAC9" d="M919.38,166.57v-10.45h1.15v10.21h2.46v0.99h-2.74C919.7,167.32,919.38,167.05,919.38,166.57z"/>
				<path fill="#BABAC9" d="M925.71,162.34c0-2.3-0.56-4.59-2.08-6.87h1.04c1.34,2.27,2.08,4.56,2.08,6.87
					c0,2.32-0.74,4.56-2.08,6.87h-1.04C925.15,166.91,925.71,164.66,925.71,162.34z"/>
			</g>
		</g>
		<path fill="#D9D9D9" d="M644.75,273h-360c-15.46,0-28-12.54-28-28v0c0-15.46,12.54-28,28-28h360c15.46,0,28,12.54,28,28v0
			C672.75,260.46,660.21,273,644.75,273z"/>
		<path fill="#D9D9D9" d="M1070.3,407H295.7c-21.38,0-38.7-17.33-38.7-38.7V338.7c0-21.38,17.33-38.7,38.7-38.7h774.59
			c21.38,0,38.7,17.33,38.7,38.7v29.59C1109,389.67,1091.67,407,1070.3,407z"/>
		<path fill="#D9D9D9" d="M1081.25,273h-360c-15.46,0-28-12.54-28-28v0c0-15.46,12.54-28,28-28h360c15.46,0,28,12.54,28,28v0
			C1109.25,260.46,1096.71,273,1081.25,273z"/>
		<g>
			<g>
				<path fill="#BABAC9" d="M286.26,238.5h8.32v1.04h-7.07v3.59h5.54v1.04h-5.54v4.5h7.07v1.04h-8.32V238.5z"/>
				<path fill="#BABAC9" d="M296.31,241.7h1.15v1.58c0.46-0.88,1.33-1.84,2.87-1.84c1.83,0,2.62,1.18,2.96,2.27
					c0.38-0.91,1.23-2.27,3.1-2.27c2.55,0,3.17,1.78,3.17,3.43v4.83h-1.15v-4.51c0-1.15-0.19-2.72-2.02-2.72
					c-2.14,0-2.88,1.98-2.88,3.41v3.83h-1.15v-4.35c0-1.15-0.35-2.87-2.19-2.87c-1.73,0-2.61,1.44-2.71,2.77v4.45h-1.15V241.7z"/>
				<path fill="#BABAC9" d="M310.79,245.69c0-2.5,1.62-4.24,4.07-4.24c1.54,0,2.62,0.69,3.22,1.82v-1.57h1.09v8h-1.09v-1.58
					c-0.59,1.14-1.68,1.84-3.22,1.84C312.4,249.96,310.79,248.19,310.79,245.69z M318.07,245.67c0-1.9-1.3-3.2-3.14-3.2
					c-1.81,0-2.93,1.3-2.93,3.2s1.12,3.27,2.93,3.27C316.77,248.94,318.07,247.58,318.07,245.67z"/>
				<path fill="#BABAC9" d="M320.98,238.5h1.25v1.62h-1.25V238.5z M321.03,241.7h1.15v8h-1.15V241.7z"/>
				<path fill="#BABAC9" d="M324.1,248.95V238.5h1.15v10.21h2.46v0.99h-2.74C324.42,249.71,324.1,249.44,324.1,248.95z"/>
				<path fill="#BABAC9" d="M332.44,243.58l1.44-1.92l-1.94-0.82l0.27-0.77l1.87,0.78v-2.35h0.86v2.35l1.87-0.78l0.27,0.77
					l-1.94,0.82l1.44,1.92l-0.7,0.43l-1.38-1.9l-1.38,1.9L332.44,243.58z"/>
			</g>
		</g>
		<g>
			<g>
				<path fill="#BABAC9" d="M286.26,329.5h4.27c3.38,0,5.81,2.29,5.81,5.55c0,3.33-2.43,5.65-5.81,5.65h-4.27V329.5z M295.03,335.06
					c0-2.61-1.82-4.51-4.5-4.51h-3.02v9.12h3.02C293.21,339.67,295.03,337.73,295.03,335.06z"/>
				<path fill="#BABAC9" d="M297.17,336.67c0-2.48,1.76-4.23,4.4-4.23c2.54,0,4.21,1.62,4.21,4.5h-7.43
					c0.11,1.76,1.39,2.99,3.14,2.99c1.49,0,2.66-0.75,3.04-2h1.15c-0.5,1.86-2.13,3.02-4.23,3.02
					C298.93,340.96,297.17,339.19,297.17,336.67z M304.57,335.95c-0.26-1.5-1.34-2.48-2.94-2.48c-1.41,0-2.9,0.7-3.22,2.48H304.57z"
					/>
				<path fill="#BABAC9" d="M306.4,338.08h1.15c0,0.94,0.54,1.87,2.45,1.87c1.75,0,2.46-0.66,2.46-1.41c0-2.11-5.87-0.51-5.87-3.65
					c0-1.49,1.17-2.45,3.23-2.45c2.11,0,3.63,1.01,3.63,2.85h-1.15c0-1.18-1.06-1.82-2.51-1.82c-1.31,0-2.05,0.54-2.05,1.3
					c0,2.18,5.87,0.3,5.87,3.68c0,1.7-1.49,2.53-3.62,2.53C307.67,340.98,306.4,339.92,306.4,338.08z"/>
				<path fill="#BABAC9" d="M314.48,336.69c0-2.56,1.7-4.24,4.1-4.24c2.11,0,3.39,1.07,3.87,2.85h-1.15
					c-0.34-1.1-1.22-1.82-2.72-1.82c-1.74,0-2.95,1.39-2.95,3.22c0,1.83,1.2,3.23,2.95,3.23c1.5,0,2.4-0.74,2.74-1.84h1.15
					c-0.48,1.78-1.78,2.87-3.89,2.87C316.18,340.95,314.48,339.25,314.48,336.69z"/>
				<path fill="#BABAC9" d="M324.64,332.7h5.04v0.99h-4.67v7.01h-1.15v-7.14C323.86,333.02,324.15,332.7,324.64,332.7z"/>
				<path fill="#BABAC9" d="M330.63,329.5h1.25v1.62h-1.25V329.5z M330.68,332.7h1.15v8h-1.15V332.7z"/>
				<path fill="#BABAC9" d="M333.75,329.5h1.15v4.77c0.59-1.14,1.68-1.82,3.22-1.82c2.45,0,4.07,1.74,4.07,4.24
					s-1.62,4.27-4.07,4.27c-1.54,0-2.62-0.7-3.22-1.84v1.58h-1.15V329.5z M340.97,336.67c0-1.91-1.12-3.2-2.93-3.2
					c-1.84,0-3.14,1.3-3.14,3.2c0,1.9,1.3,3.26,3.14,3.26C339.85,339.94,340.97,338.58,340.97,336.67z"/>
				<path fill="#BABAC9" d="M343.04,336.67c0-2.48,1.76-4.23,4.4-4.23c2.54,0,4.21,1.62,4.21,4.5h-7.43
					c0.11,1.76,1.39,2.99,3.14,2.99c1.49,0,2.66-0.75,3.04-2h1.15c-0.5,1.86-2.13,3.02-4.23,3.02
					C344.8,340.96,343.04,339.19,343.04,336.67z M350.44,335.95c-0.26-1.5-1.34-2.48-2.94-2.48c-1.41,0-2.9,0.7-3.22,2.48H350.44z"
					/>
				<path fill="#BABAC9" d="M357.43,339.83v-6.13h-1.76v-0.99h1.76v-2.08h1.15v2.08h2.48v0.99h-2.48v6.02h2.48v0.99h-2.77
					C357.75,340.71,357.43,340.39,357.43,339.83z"/>
				<path fill="#BABAC9" d="M362.34,329.5h1.15v4.79c0.66-1.22,1.67-1.84,3.03-1.84c2.19,0,3.36,1.26,3.36,3.55v4.71h-1.15v-4.61
					c0-1.79-0.91-2.62-2.39-2.62c-1.78,0-2.85,1.23-2.85,3.25v3.99h-1.15V329.5z"/>
				<path fill="#BABAC9" d="M371.11,336.67c0-2.48,1.76-4.23,4.4-4.23c2.54,0,4.21,1.62,4.21,4.5h-7.43
					c0.11,1.76,1.39,2.99,3.14,2.99c1.49,0,2.66-0.75,3.04-2h1.15c-0.5,1.86-2.13,3.02-4.23,3.02
					C372.87,340.96,371.11,339.19,371.11,336.67z M378.5,335.95c-0.26-1.5-1.34-2.48-2.94-2.48c-1.41,0-2.9,0.7-3.22,2.48H378.5z"/>
				<path fill="#BABAC9" d="M385.49,339.83v-6.13h-1.76v-0.99h1.76v-2.08h1.15v2.08h2.48v0.99h-2.48v6.02h2.48v0.99h-2.77
					C385.81,340.71,385.49,340.39,385.49,339.83z"/>
				<path fill="#BABAC9" d="M389.71,336.69c0-2.5,1.62-4.24,4.07-4.24c1.54,0,2.62,0.69,3.22,1.82v-1.57h1.09v8H397v-1.58
					c-0.59,1.14-1.68,1.84-3.22,1.84C391.33,340.96,389.71,339.19,389.71,336.69z M397,336.67c0-1.91-1.3-3.2-3.14-3.2
					c-1.81,0-2.93,1.3-2.93,3.2c0,1.9,1.12,3.26,2.93,3.26C395.7,339.94,397,338.58,397,336.67z"/>
				<path fill="#BABAC9" d="M399.43,338.08h1.15c0,0.94,0.54,1.87,2.45,1.87c1.75,0,2.46-0.66,2.46-1.41c0-2.11-5.87-0.51-5.87-3.65
					c0-1.49,1.17-2.45,3.23-2.45c2.11,0,3.63,1.01,3.63,2.85h-1.15c0-1.18-1.06-1.82-2.51-1.82c-1.31,0-2.05,0.54-2.05,1.3
					c0,2.18,5.87,0.3,5.87,3.68c0,1.7-1.49,2.53-3.62,2.53C400.69,340.98,399.43,339.92,399.43,338.08z"/>
				<path fill="#BABAC9" d="M408.03,329.5h1.15v7.39l4.1-4.19h1.55l-3.14,3.14l3.14,4.87h-1.42l-2.56-4.02l-1.67,1.65v2.37h-1.15
					V329.5z"/>
				<path fill="#BABAC9" d="M414.9,338.08h1.15c0,0.94,0.54,1.87,2.45,1.87c1.74,0,2.46-0.66,2.46-1.41c0-2.11-5.87-0.51-5.87-3.65
					c0-1.49,1.17-2.45,3.23-2.45c2.11,0,3.63,1.01,3.63,2.85h-1.15c0-1.18-1.06-1.82-2.51-1.82c-1.31,0-2.05,0.54-2.05,1.3
					c0,2.18,5.88,0.3,5.88,3.68c0,1.7-1.49,2.53-3.62,2.53C416.16,340.98,414.9,339.92,414.9,338.08z"/>
				<path fill="#BABAC9" d="M427.89,339.83v-6.13h-1.76v-0.99h1.76v-2.08h1.15v2.08h2.48v0.99h-2.48v6.02h2.48v0.99h-2.77
					C428.21,340.71,427.89,340.39,427.89,339.83z"/>
				<path fill="#BABAC9" d="M432.8,329.5h1.15v4.79c0.66-1.22,1.67-1.84,3.03-1.84c2.19,0,3.36,1.26,3.36,3.55v4.71h-1.15v-4.61
					c0-1.79-0.91-2.62-2.39-2.62c-1.78,0-2.85,1.23-2.85,3.25v3.99h-1.15V329.5z"/>
				<path fill="#BABAC9" d="M441.57,336.69c0-2.5,1.62-4.24,4.07-4.24c1.54,0,2.62,0.69,3.22,1.82v-1.57h1.09v8h-1.09v-1.58
					c-0.59,1.14-1.68,1.84-3.22,1.84C443.19,340.96,441.57,339.19,441.57,336.69z M448.85,336.67c0-1.91-1.3-3.2-3.14-3.2
					c-1.81,0-2.93,1.3-2.93,3.2c0,1.9,1.12,3.26,2.93,3.26C447.56,339.94,448.85,338.58,448.85,336.67z"/>
				<path fill="#BABAC9" d="M453.09,339.83v-6.13h-1.76v-0.99h1.76v-2.08h1.15v2.08h2.48v0.99h-2.48v6.02h2.48v0.99h-2.77
					C453.41,340.71,453.09,340.39,453.09,339.83z"/>
				<path fill="#BABAC9" d="M460.34,336.67c0-2.48,1.76-4.23,4.4-4.23c2.54,0,4.21,1.62,4.21,4.5h-7.43
					c0.11,1.76,1.39,2.99,3.14,2.99c1.49,0,2.66-0.75,3.04-2h1.15c-0.5,1.86-2.13,3.02-4.23,3.02
					C462.1,340.96,460.34,339.19,460.34,336.67z M467.73,335.95c-0.26-1.5-1.34-2.48-2.94-2.48c-1.41,0-2.9,0.7-3.22,2.48H467.73z"
					/>
				<path fill="#BABAC9" d="M469.81,336.69c0-2.5,1.62-4.24,4.07-4.24c1.54,0,2.62,0.69,3.22,1.82v-1.57h1.09v8h-1.09v-1.58
					c-0.59,1.14-1.68,1.84-3.22,1.84C471.43,340.96,469.81,339.19,469.81,336.69z M477.09,336.67c0-1.91-1.3-3.2-3.14-3.2
					c-1.81,0-2.93,1.3-2.93,3.2c0,1.9,1.12,3.26,2.93,3.26C475.8,339.94,477.09,338.58,477.09,336.67z"/>
				<path fill="#BABAC9" d="M481.33,339.83v-6.13h-1.76v-0.99h1.76v-2.08h1.15v2.08h2.48v0.99h-2.48v6.02h2.48v0.99h-2.77
					C481.65,340.71,481.33,340.39,481.33,339.83z"/>
				<path fill="#BABAC9" d="M491.28,332.7h1.33l2.85,6.75l2.9-6.75h1.25l-3.57,8v2.32c0,0.56-0.32,0.88-0.88,0.88h-2.98v-0.99h2.71
					v-2.21L491.28,332.7z"/>
				<path fill="#BABAC9" d="M499.9,336.67c0-2.46,1.9-4.23,4.35-4.23s4.37,1.76,4.37,4.23s-1.92,4.29-4.37,4.29
					S499.9,339.14,499.9,336.67z M507.41,336.67c0-1.87-1.38-3.2-3.15-3.2c-1.78,0-3.14,1.33-3.14,3.2s1.36,3.26,3.14,3.26
					C506.04,339.94,507.41,338.55,507.41,336.67z"/>
				<path fill="#BABAC9" d="M509.86,337.41v-4.71h1.15v4.61c0,1.95,0.91,2.62,2.38,2.62c1.78,0,2.85-1.23,2.85-3.25v-3.99h1.15v8
					h-1.15v-1.58c-0.66,1.22-1.67,1.84-3.03,1.84C511.02,340.96,509.86,339.7,509.86,337.41z"/>
				<path fill="#BABAC9" d="M520.1,332.7h5.04v0.99h-4.67v7.01h-1.15v-7.14C519.31,333.02,519.6,332.7,520.1,332.7z"/>
				<path fill="#BABAC9" d="M529.87,339.83v-6.13h-1.76v-0.99h1.76v-2.08h1.15v2.08h2.48v0.99h-2.48v6.02h2.48v0.99h-2.77
					C530.19,340.71,529.87,340.39,529.87,339.83z"/>
				<path fill="#BABAC9" d="M534.74,329.5h1.25v1.62h-1.25V329.5z M534.78,332.7h1.15v8h-1.15V332.7z"/>
				<path fill="#BABAC9" d="M537.86,332.7h1.15v1.58c0.46-0.88,1.33-1.84,2.87-1.84c1.83,0,2.62,1.18,2.96,2.27
					c0.38-0.91,1.23-2.27,3.1-2.27c2.55,0,3.17,1.78,3.17,3.42v4.83h-1.15v-4.51c0-1.15-0.19-2.72-2.02-2.72
					c-2.14,0-2.88,1.98-2.88,3.41v3.83h-1.15v-4.35c0-1.15-0.35-2.87-2.19-2.87c-1.73,0-2.61,1.44-2.71,2.77v4.45h-1.15V332.7z"/>
				<path fill="#BABAC9" d="M552.34,336.67c0-2.48,1.76-4.23,4.4-4.23c2.54,0,4.21,1.62,4.21,4.5h-7.43
					c0.11,1.76,1.39,2.99,3.14,2.99c1.49,0,2.66-0.75,3.04-2h1.15c-0.5,1.86-2.13,3.02-4.23,3.02
					C554.1,340.96,552.34,339.19,552.34,336.67z M559.73,335.95c-0.26-1.5-1.34-2.48-2.95-2.48c-1.41,0-2.9,0.7-3.22,2.48H559.73z"
					/>
				<path fill="#BABAC9" d="M561.22,341.6h0.7c0.29,0,0.4-0.11,0.4-0.4v-0.5h-0.64v-1.6h1.28v2.1c0,0.67-0.37,0.96-1.04,0.96h-0.7
					V341.6z"/>
				<path fill="#BABAC9" d="M569.01,339.83v-6.13h-1.76v-0.99h1.76v-2.08h1.15v2.08h2.48v0.99h-2.48v6.02h2.48v0.99h-2.77
					C569.33,340.71,569.01,340.39,569.01,339.83z"/>
				<path fill="#BABAC9" d="M573.23,336.67c0-2.46,1.9-4.23,4.35-4.23c2.45,0,4.37,1.76,4.37,4.23s-1.92,4.29-4.37,4.29
					C575.14,340.96,573.23,339.14,573.23,336.67z M580.74,336.67c0-1.87-1.38-3.2-3.15-3.2c-1.78,0-3.14,1.33-3.14,3.2
					s1.36,3.26,3.14,3.26C579.36,339.94,580.74,338.55,580.74,336.67z"/>
				<path fill="#BABAC9" d="M582.82,336.67c0-2.46,1.9-4.23,4.35-4.23c2.45,0,4.37,1.76,4.37,4.23s-1.92,4.29-4.37,4.29
					C584.72,340.96,582.82,339.14,582.82,336.67z M590.32,336.67c0-1.87-1.38-3.2-3.15-3.2c-1.78,0-3.14,1.33-3.14,3.2
					s1.36,3.26,3.14,3.26C588.95,339.94,590.32,338.55,590.32,336.67z"/>
				<path fill="#BABAC9" d="M592.77,339.95V329.5h1.15v10.21h2.46v0.99h-2.74C593.09,340.71,592.77,340.44,592.77,339.95z"/>
				<path fill="#BABAC9" d="M597.14,338.08h1.15c0,0.94,0.54,1.87,2.45,1.87c1.75,0,2.46-0.66,2.46-1.41c0-2.11-5.87-0.51-5.87-3.65
					c0-1.49,1.17-2.45,3.23-2.45c2.11,0,3.63,1.01,3.63,2.85h-1.15c0-1.18-1.06-1.82-2.51-1.82c-1.31,0-2.05,0.54-2.05,1.3
					c0,2.18,5.87,0.3,5.87,3.68c0,1.7-1.49,2.53-3.62,2.53C598.4,340.98,597.14,339.92,597.14,338.08z"/>
				<path fill="#BABAC9" d="M607.92,332.7h1.33l2.85,6.75l2.9-6.75h1.25l-3.57,8v2.32c0,0.56-0.32,0.88-0.88,0.88h-2.98v-0.99h2.71
					v-2.21L607.92,332.7z"/>
				<path fill="#BABAC9" d="M616.54,336.67c0-2.46,1.9-4.23,4.35-4.23c2.45,0,4.37,1.76,4.37,4.23s-1.92,4.29-4.37,4.29
					C618.45,340.96,616.54,339.14,616.54,336.67z M624.05,336.67c0-1.87-1.38-3.2-3.15-3.2c-1.78,0-3.14,1.33-3.14,3.2
					s1.36,3.26,3.14,3.26C622.67,339.94,624.05,338.55,624.05,336.67z"/>
				<path fill="#BABAC9" d="M626.49,337.41v-4.71h1.15v4.61c0,1.95,0.91,2.62,2.38,2.62c1.78,0,2.85-1.23,2.85-3.25v-3.99h1.15v8
					h-1.15v-1.58c-0.66,1.22-1.66,1.84-3.03,1.84C627.66,340.96,626.49,339.7,626.49,337.41z"/>
				<path fill="#BABAC9" d="M638.89,337.41v-4.71h1.15v4.61c0,1.95,0.91,2.62,2.38,2.62c1.78,0,2.85-1.23,2.85-3.25v-3.99h1.15v8
					h-1.15v-1.58c-0.66,1.22-1.67,1.84-3.03,1.84C640.06,340.96,638.89,339.7,638.89,337.41z"/>
				<path fill="#BABAC9" d="M647.82,338.08h1.15c0,0.94,0.54,1.87,2.45,1.87c1.74,0,2.46-0.66,2.46-1.41c0-2.11-5.87-0.51-5.87-3.65
					c0-1.49,1.17-2.45,3.23-2.45c2.11,0,3.63,1.01,3.63,2.85h-1.15c0-1.18-1.06-1.82-2.51-1.82c-1.31,0-2.05,0.54-2.05,1.3
					c0,2.18,5.87,0.3,5.87,3.68c0,1.7-1.49,2.53-3.62,2.53C649.09,340.98,647.82,339.92,647.82,338.08z"/>
				<path fill="#BABAC9" d="M655.9,336.67c0-2.48,1.76-4.23,4.4-4.23c2.54,0,4.21,1.62,4.21,4.5h-7.43
					c0.11,1.76,1.39,2.99,3.14,2.99c1.49,0,2.66-0.75,3.04-2h1.15c-0.5,1.86-2.13,3.02-4.23,3.02
					C657.66,340.96,655.9,339.19,655.9,336.67z M663.3,335.95c-0.26-1.5-1.34-2.48-2.95-2.48c-1.41,0-2.9,0.7-3.22,2.48H663.3z"/>
				<path fill="#BABAC9" d="M664.78,341.6h0.7c0.29,0,0.4-0.11,0.4-0.4v-0.5h-0.64v-1.6h1.28v2.1c0,0.67-0.37,0.96-1.04,0.96h-0.7
					V341.6z"/>
				<path fill="#BABAC9" d="M672.08,332.7h5.04v0.99h-4.67v7.01h-1.15v-7.14C671.29,333.02,671.58,332.7,672.08,332.7z"/>
				<path fill="#BABAC9" d="M677.34,336.67c0-2.46,1.9-4.23,4.35-4.23s4.37,1.76,4.37,4.23s-1.92,4.29-4.37,4.29
					S677.34,339.14,677.34,336.67z M684.85,336.67c0-1.87-1.38-3.2-3.15-3.2c-1.78,0-3.14,1.33-3.14,3.2s1.36,3.26,3.14,3.26
					C683.47,339.94,684.85,338.55,684.85,336.67z"/>
				<path fill="#BABAC9" d="M687.29,337.41v-4.71h1.15v4.61c0,1.95,0.91,2.62,2.38,2.62c1.78,0,2.85-1.23,2.85-3.25v-3.99h1.15v8
					h-1.15v-1.58c-0.66,1.22-1.67,1.84-3.03,1.84C688.46,340.96,687.29,339.7,687.29,337.41z"/>
				<path fill="#BABAC9" d="M696.22,336.69c0-2.5,1.62-4.24,4.07-4.24c1.54,0,2.62,0.69,3.22,1.82v-1.57h1.15v10.34
					c0,0.54-0.32,0.86-0.88,0.86h-6.66v-0.99h6.39v-3.79c-0.59,1.14-1.68,1.84-3.22,1.84C697.84,340.96,696.22,339.19,696.22,336.69
					z M703.51,336.67c0-1.91-1.3-3.2-3.14-3.2c-1.81,0-2.93,1.3-2.93,3.2c0,1.9,1.12,3.26,2.93,3.26
					C702.21,339.94,703.51,338.58,703.51,336.67z"/>
				<path fill="#BABAC9" d="M706.41,329.5h1.15v4.79c0.66-1.22,1.67-1.84,3.03-1.84c2.19,0,3.36,1.26,3.36,3.55v4.71h-1.15v-4.61
					c0-1.79-0.91-2.62-2.38-2.62c-1.78,0-2.85,1.23-2.85,3.25v3.99h-1.15V329.5z"/>
				<path fill="#BABAC9" d="M715.71,339.95V329.5h1.15v10.21h2.46v0.99h-2.74C716.03,340.71,715.71,340.44,715.71,339.95z"/>
				<path fill="#BABAC9" d="M719.04,332.7h1.33l2.85,6.75l2.9-6.75h1.25l-3.57,8v2.32c0,0.56-0.32,0.88-0.88,0.88h-2.98v-0.99h2.71
					v-2.21L719.04,332.7z"/>
				<path fill="#BABAC9" d="M731.45,332.7h1.15v1.58c0.46-0.88,1.33-1.84,2.87-1.84c1.83,0,2.62,1.18,2.96,2.27
					c0.38-0.91,1.23-2.27,3.1-2.27c2.55,0,3.17,1.78,3.17,3.42v4.83h-1.15v-4.51c0-1.15-0.19-2.72-2.02-2.72
					c-2.14,0-2.88,1.98-2.88,3.41v3.83h-1.15v-4.35c0-1.15-0.35-2.87-2.19-2.87c-1.73,0-2.61,1.44-2.71,2.77v4.45h-1.15V332.7z"/>
				<path fill="#BABAC9" d="M745.93,336.67c0-2.46,1.91-4.23,4.35-4.23c2.45,0,4.37,1.76,4.37,4.23s-1.92,4.29-4.37,4.29
					C747.84,340.96,745.93,339.14,745.93,336.67z M753.44,336.67c0-1.87-1.38-3.2-3.15-3.2c-1.78,0-3.14,1.33-3.14,3.2
					s1.36,3.26,3.14,3.26C752.06,339.94,753.44,338.55,753.44,336.67z"/>
				<path fill="#BABAC9" d="M756.05,332.7h1.15v1.58c0.66-1.22,1.67-1.84,3.03-1.84c2.19,0,3.36,1.26,3.36,3.55v4.71h-1.15v-4.61
					c0-1.79-0.91-2.62-2.38-2.62c-1.78,0-2.85,1.23-2.85,3.25v3.99h-1.15V332.7z"/>
				<path fill="#BABAC9" d="M766.14,339.83v-6.13h-1.76v-0.99h1.76v-2.08h1.15v2.08h2.48v0.99h-2.48v6.02h2.48v0.99h-2.77
					C766.46,340.71,766.14,340.39,766.14,339.83z"/>
				<path fill="#BABAC9" d="M771.05,329.5h1.15v4.79c0.66-1.22,1.67-1.84,3.03-1.84c2.19,0,3.36,1.26,3.36,3.55v4.71h-1.15v-4.61
					c0-1.79-0.91-2.62-2.38-2.62c-1.78,0-2.85,1.23-2.85,3.25v3.99h-1.15V329.5z"/>
				<path fill="#BABAC9" d="M780.35,339.95V329.5h1.15v10.21h2.46v0.99h-2.74C780.67,340.71,780.35,340.44,780.35,339.95z"/>
				<path fill="#BABAC9" d="M783.68,332.7h1.33l2.85,6.75l2.9-6.75H792l-3.57,8v2.32c0,0.56-0.32,0.88-0.88,0.88h-2.98v-0.99h2.71
					v-2.21L783.68,332.7z"/>
				<path fill="#BABAC9" d="M795.16,332.7h1.28l2.88,6.8l2.88-6.8h1.23l-3.55,8h-1.15L795.16,332.7z"/>
				<path fill="#BABAC9" d="M803.74,336.67c0-2.46,1.91-4.23,4.35-4.23c2.45,0,4.37,1.76,4.37,4.23s-1.92,4.29-4.37,4.29
					C805.65,340.96,803.74,339.14,803.74,336.67z M811.25,336.67c0-1.87-1.38-3.2-3.15-3.2c-1.78,0-3.14,1.33-3.14,3.2
					s1.36,3.26,3.14,3.26C809.87,339.94,811.25,338.55,811.25,336.67z"/>
				<path fill="#BABAC9" d="M813.69,339.95V329.5h1.15v10.21h2.46v0.99h-2.74C814.01,340.71,813.69,340.44,813.69,339.95z"/>
				<path fill="#BABAC9" d="M818.43,337.41v-4.71h1.15v4.61c0,1.95,0.91,2.62,2.38,2.62c1.78,0,2.85-1.23,2.85-3.25v-3.99h1.15v8
					h-1.15v-1.58c-0.66,1.22-1.67,1.84-3.03,1.84C819.6,340.96,818.43,339.7,818.43,337.41z"/>
				<path fill="#BABAC9" d="M827.89,332.7h1.15v1.58c0.46-0.88,1.33-1.84,2.87-1.84c1.82,0,2.62,1.18,2.96,2.27
					c0.38-0.91,1.23-2.27,3.11-2.27c2.54,0,3.17,1.78,3.17,3.42v4.83h-1.15v-4.51c0-1.15-0.19-2.72-2.02-2.72
					c-2.15,0-2.88,1.98-2.88,3.41v3.83h-1.15v-4.35c0-1.15-0.35-2.87-2.19-2.87c-1.73,0-2.61,1.44-2.71,2.77v4.45h-1.15V332.7z"/>
				<path fill="#BABAC9" d="M842.36,336.67c0-2.48,1.76-4.23,4.4-4.23c2.54,0,4.21,1.62,4.21,4.5h-7.43
					c0.11,1.76,1.39,2.99,3.14,2.99c1.49,0,2.66-0.75,3.04-2h1.15c-0.5,1.86-2.13,3.02-4.23,3.02
					C844.13,340.96,842.36,339.19,842.36,336.67z M849.76,335.95c-0.26-1.5-1.34-2.48-2.95-2.48c-1.41,0-2.9,0.7-3.22,2.48H849.76z"
					/>
				<path fill="#BABAC9" d="M851.24,341.6h0.7c0.29,0,0.4-0.11,0.4-0.4v-0.5h-0.64v-1.6h1.28v2.1c0,0.67-0.37,0.96-1.04,0.96h-0.7
					V341.6z"/>
				<path fill="#BABAC9" d="M857.23,336.69c0-2.5,1.62-4.24,4.07-4.24c1.54,0,2.62,0.69,3.22,1.82v-1.57h1.09v8h-1.09v-1.58
					c-0.59,1.14-1.68,1.84-3.22,1.84C858.85,340.96,857.23,339.19,857.23,336.69z M864.51,336.67c0-1.91-1.3-3.2-3.14-3.2
					c-1.81,0-2.93,1.3-2.93,3.2c0,1.9,1.12,3.26,2.93,3.26C863.21,339.94,864.51,338.58,864.51,336.67z"/>
				<path fill="#BABAC9" d="M867.47,332.7h1.15v1.58c0.66-1.22,1.67-1.84,3.03-1.84c2.19,0,3.36,1.26,3.36,3.55v4.71h-1.15v-4.61
					c0-1.79-0.91-2.62-2.38-2.62c-1.78,0-2.85,1.23-2.85,3.25v3.99h-1.15V332.7z"/>
				<path fill="#BABAC9" d="M875.44,332.7h1.33l2.85,6.75l2.9-6.75h1.25l-3.57,8v2.32c0,0.56-0.32,0.88-0.88,0.88h-2.98v-0.99h2.71
					v-2.21L875.44,332.7z"/>
				<path fill="#BABAC9" d="M886.03,339.83v-6.13h-1.76v-0.99h1.76v-2.08h1.15v2.08h2.48v0.99h-2.48v6.02h2.48v0.99h-2.77
					C886.35,340.71,886.03,340.39,886.03,339.83z"/>
				<path fill="#BABAC9" d="M890.94,329.5h1.15v4.79c0.66-1.22,1.67-1.84,3.03-1.84c2.19,0,3.36,1.26,3.36,3.55v4.71h-1.15v-4.61
					c0-1.79-0.91-2.62-2.38-2.62c-1.78,0-2.85,1.23-2.85,3.25v3.99h-1.15V329.5z"/>
				<path fill="#BABAC9" d="M900.19,329.5h1.25v1.62h-1.25V329.5z M900.24,332.7h1.15v8h-1.15V332.7z"/>
				<path fill="#BABAC9" d="M903.31,332.7h1.15v1.58c0.66-1.22,1.66-1.84,3.03-1.84c2.19,0,3.36,1.26,3.36,3.55v4.71h-1.15v-4.61
					c0-1.79-0.91-2.62-2.39-2.62c-1.78,0-2.85,1.23-2.85,3.25v3.99h-1.15V332.7z"/>
				<path fill="#BABAC9" d="M912.08,336.69c0-2.5,1.62-4.24,4.07-4.24c1.54,0,2.62,0.69,3.22,1.82v-1.57h1.15v10.34
					c0,0.54-0.32,0.86-0.88,0.86h-6.66v-0.99h6.39v-3.79c-0.59,1.14-1.68,1.84-3.22,1.84C913.69,340.96,912.08,339.19,912.08,336.69
					z M919.36,336.67c0-1.91-1.3-3.2-3.14-3.2c-1.81,0-2.93,1.3-2.93,3.2c0,1.9,1.12,3.26,2.93,3.26
					C918.06,339.94,919.36,338.58,919.36,336.67z"/>
				<path fill="#BABAC9" d="M926.81,339.83v-6.13h-1.76v-0.99h1.76v-2.08h1.15v2.08h2.48v0.99h-2.48v6.02h2.48v0.99h-2.77
					C927.13,340.71,926.81,340.39,926.81,339.83z"/>
				<path fill="#BABAC9" d="M931.72,329.5h1.15v4.79c0.66-1.22,1.67-1.84,3.03-1.84c2.19,0,3.36,1.26,3.36,3.55v4.71h-1.15v-4.61
					c0-1.79-0.91-2.62-2.38-2.62c-1.78,0-2.85,1.23-2.85,3.25v3.99h-1.15V329.5z"/>
				<path fill="#BABAC9" d="M940.49,336.69c0-2.5,1.62-4.24,4.07-4.24c1.54,0,2.62,0.69,3.22,1.82v-1.57h1.09v8h-1.09v-1.58
					c-0.59,1.14-1.68,1.84-3.22,1.84C942.11,340.96,940.49,339.19,940.49,336.69z M947.77,336.67c0-1.91-1.3-3.2-3.14-3.2
					c-1.81,0-2.93,1.3-2.93,3.2c0,1.9,1.12,3.26,2.93,3.26C946.48,339.94,947.77,338.58,947.77,336.67z"/>
				<path fill="#BABAC9" d="M952.01,339.83v-6.13h-1.76v-0.99h1.76v-2.08h1.15v2.08h2.48v0.99h-2.48v6.02h2.48v0.99h-2.77
					C952.33,340.71,952.01,340.39,952.01,339.83z"/>
				<path fill="#BABAC9" d="M959.79,329.5h1.15v4.79c0.66-1.22,1.67-1.84,3.03-1.84c2.19,0,3.36,1.26,3.36,3.55v4.71h-1.15v-4.61
					c0-1.79-0.91-2.62-2.38-2.62c-1.78,0-2.85,1.23-2.85,3.25v3.99h-1.15V329.5z"/>
				<path fill="#BABAC9" d="M968.55,336.67c0-2.48,1.76-4.23,4.4-4.23c2.54,0,4.21,1.62,4.21,4.5h-7.43
					c0.11,1.76,1.39,2.99,3.14,2.99c1.49,0,2.66-0.75,3.04-2h1.15c-0.5,1.86-2.13,3.02-4.23,3.02
					C970.31,340.96,968.55,339.19,968.55,336.67z M975.95,335.95c-0.26-1.5-1.34-2.48-2.95-2.48c-1.41,0-2.9,0.7-3.22,2.48H975.95z"
					/>
				<path fill="#BABAC9" d="M978.39,339.95V329.5h1.15v10.21h2.46v0.99h-2.74C978.71,340.71,978.39,340.44,978.39,339.95z"/>
				<path fill="#BABAC9" d="M983.29,332.7h1.15v1.57c0.59-1.14,1.68-1.82,3.22-1.82c2.45,0,4.07,1.74,4.07,4.24
					s-1.62,4.27-4.07,4.27c-1.54,0-2.62-0.7-3.22-1.84v4.79h-1.15V332.7z M990.51,336.67c0-1.91-1.12-3.2-2.93-3.2
					c-1.84,0-3.14,1.3-3.14,3.2c0,1.9,1.3,3.26,3.14,3.26C989.39,339.94,990.51,338.58,990.51,336.67z"/>
				<path fill="#BABAC9" d="M992.35,338.08h1.15c0,0.94,0.54,1.87,2.45,1.87c1.75,0,2.46-0.66,2.46-1.41c0-2.11-5.87-0.51-5.87-3.65
					c0-1.49,1.17-2.45,3.23-2.45c2.11,0,3.63,1.01,3.63,2.85h-1.15c0-1.18-1.06-1.82-2.51-1.82c-1.31,0-2.05,0.54-2.05,1.3
					c0,2.18,5.88,0.3,5.88,3.68c0,1.7-1.49,2.53-3.62,2.53C993.61,340.98,992.35,339.92,992.35,338.08z"/>
				<path fill="#BABAC9" d="M1000.7,339.11h1.28v1.6h-1.28V339.11z"/>
			</g>
		</g>
		<g>
			<g>
				<path fill="#BABAC9" d="M765.82,239.5h4.77c2.58,0,4.13,1.25,4.13,3.36c0,2.13-1.55,3.27-4.13,3.27h-3.52v4.58h-1.25V239.5z
					 M773.47,242.85c0-1.39-0.88-2.3-2.88-2.3h-3.52v4.55h3.52C772.59,245.09,773.47,244.26,773.47,242.85z"/>
				<path fill="#BABAC9" d="M776.06,239.5h1.15v4.79c0.66-1.22,1.67-1.84,3.03-1.84c2.19,0,3.36,1.26,3.36,3.55v4.71h-1.15v-4.61
					c0-1.79-0.91-2.62-2.38-2.62c-1.78,0-2.85,1.23-2.85,3.25v3.99h-1.15V239.5z"/>
				<path fill="#BABAC9" d="M784.82,246.67c0-2.46,1.9-4.23,4.35-4.23s4.37,1.76,4.37,4.23s-1.92,4.29-4.37,4.29
					S784.82,249.14,784.82,246.67z M792.33,246.67c0-1.87-1.38-3.2-3.15-3.2s-3.14,1.33-3.14,3.2c0,1.87,1.36,3.27,3.14,3.27
					S792.33,248.55,792.33,246.67z"/>
				<path fill="#BABAC9" d="M794.94,242.7h1.15v1.58c0.66-1.22,1.66-1.84,3.03-1.84c2.19,0,3.36,1.26,3.36,3.55v4.71h-1.15v-4.61
					c0-1.79-0.91-2.62-2.39-2.62c-1.78,0-2.85,1.23-2.85,3.25v3.99h-1.15V242.7z"/>
				<path fill="#BABAC9" d="M803.7,246.67c0-2.48,1.76-4.23,4.4-4.23c2.54,0,4.21,1.62,4.21,4.5h-7.43
					c0.11,1.76,1.39,2.99,3.14,2.99c1.49,0,2.66-0.75,3.04-2h1.15c-0.5,1.86-2.13,3.02-4.23,3.02
					C805.47,250.96,803.7,249.19,803.7,246.67z M811.1,245.95c-0.26-1.5-1.34-2.48-2.95-2.48c-1.41,0-2.9,0.7-3.22,2.48H811.1z"/>
				<path fill="#BABAC9" d="M815.21,253.91l6.24-15.37h0.98l-6.24,15.37H815.21z"/>
				<path fill="#BABAC9" d="M824.92,239.5h1.3l2.66,9.86l3.09-9.86h1.33l3.07,9.73l2.56-9.73h1.25l-3.07,11.2h-1.54l-3.01-9.75
					l-3.09,9.75h-1.47L824.92,239.5z"/>
				<path fill="#BABAC9" d="M841.16,239.5h1.15v4.79c0.66-1.22,1.67-1.84,3.03-1.84c2.19,0,3.36,1.26,3.36,3.55v4.71h-1.15v-4.61
					c0-1.79-0.91-2.62-2.38-2.62c-1.78,0-2.85,1.23-2.85,3.25v3.99h-1.15V239.5z"/>
				<path fill="#BABAC9" d="M849.93,246.69c0-2.5,1.62-4.24,4.07-4.24c1.54,0,2.62,0.69,3.22,1.82v-1.57h1.09v8h-1.09v-1.58
					c-0.59,1.14-1.68,1.84-3.22,1.84C851.54,250.96,849.93,249.19,849.93,246.69z M857.21,246.67c0-1.9-1.3-3.2-3.14-3.2
					c-1.81,0-2.93,1.3-2.93,3.2s1.12,3.27,2.93,3.27C855.91,249.94,857.21,248.58,857.21,246.67z"/>
				<path fill="#BABAC9" d="M861.45,249.83v-6.13h-1.76v-0.99h1.76v-2.08h1.15v2.08h2.48v0.99h-2.48v6.02h2.48v0.99h-2.77
					C861.77,250.71,861.45,250.39,861.45,249.83z"/>
				<path fill="#BABAC9" d="M865.83,248.08h1.15c0,0.94,0.54,1.87,2.45,1.87c1.74,0,2.46-0.66,2.46-1.41c0-2.11-5.88-0.51-5.88-3.65
					c0-1.49,1.17-2.45,3.23-2.45c2.11,0,3.63,1.01,3.63,2.85h-1.15c0-1.18-1.06-1.82-2.51-1.82c-1.31,0-2.05,0.54-2.05,1.3
					c0,2.18,5.88,0.3,5.88,3.68c0,1.7-1.49,2.53-3.62,2.53C867.1,250.98,865.83,249.92,865.83,248.08z"/>
				<path fill="#BABAC9" d="M877.91,239.5h1.46l4.4,11.2h-1.31l-1.34-3.46h-4.99l-1.34,3.46h-1.26L877.91,239.5z M880.71,246.21
					l-2.1-5.39l-2.1,5.39H880.71z"/>
				<path fill="#BABAC9" d="M884.76,242.7h1.15v1.57c0.59-1.14,1.68-1.82,3.22-1.82c2.45,0,4.07,1.74,4.07,4.24
					s-1.62,4.27-4.07,4.27c-1.54,0-2.62-0.7-3.22-1.84v4.79h-1.15V242.7z M891.98,246.67c0-1.9-1.12-3.2-2.93-3.2
					c-1.84,0-3.14,1.3-3.14,3.2s1.3,3.27,3.14,3.27C890.86,249.94,891.98,248.58,891.98,246.67z"/>
				<path fill="#BABAC9" d="M894.58,242.7h1.15v1.57c0.59-1.14,1.68-1.82,3.22-1.82c2.45,0,4.07,1.74,4.07,4.24
					s-1.62,4.27-4.07,4.27c-1.54,0-2.62-0.7-3.22-1.84v4.79h-1.15V242.7z M901.8,246.67c0-1.9-1.12-3.2-2.93-3.2
					c-1.84,0-3.14,1.3-3.14,3.2s1.3,3.27,3.14,3.27C900.68,249.94,901.8,248.58,901.8,246.67z"/>
			</g>
		</g>
		<g>
			<circle fill="#EFEEEF" cx="722" cy="245" r="22"/>
		</g>
		<g>
			<g>
				<path fill="#7372A6" d="M708.9,242.42v3.47h3.33v0.89h-3.33v3.5h-0.94v-3.5h-3.33v-0.89h3.33v-3.47H708.9z"/>
				<path fill="#7372A6" d="M713.5,246.86h1.21c0,1.74,1.08,2.69,2.71,2.69c1.62,0,2.55-0.93,2.55-2.23c0-1.3-0.94-2.17-2.27-2.17
					h-1.83v-0.96h1.7c1.17,0,1.99-0.66,1.99-1.71c0-1.08-0.87-1.81-2.17-1.81c-1.46,0-2.23,1.09-2.23,2.54h-1.2
					c0-2.05,1.46-3.5,3.53-3.5c1.92,0,3.28,1.12,3.28,2.72c0,1.31-0.81,1.99-1.7,2.2c0.81,0.24,2.11,0.92,2.11,2.77
					c0,2.08-1.64,3.11-3.73,3.11C714.88,250.5,713.5,248.95,713.5,246.86z"/>
				<path fill="#7372A6" d="M722.07,247.43h1.15c0.13,0.66,0.62,2.08,2.48,2.08c1.67,0,2.7-1.21,2.7-2.7c0-1.61-1.18-2.73-2.85-2.73
					c-0.99,0-1.95,0.49-2.23,1.4h-1l0.88-5.55h6.15v0.96h-5.39l-0.53,3.32c0.34-0.5,1.21-1.09,2.36-1.09c2.3,0,3.81,1.42,3.81,3.69
					c0,2.24-1.46,3.66-3.91,3.66C723.06,250.47,722.29,248.79,722.07,247.43z"/>
				<path fill="#7372A6" d="M730.87,246.86h1.21c0,1.74,1.08,2.69,2.71,2.69c1.62,0,2.55-0.93,2.55-2.23c0-1.3-0.94-2.17-2.27-2.17
					h-1.83v-0.96h1.7c1.17,0,1.99-0.66,1.99-1.71c0-1.08-0.87-1.81-2.17-1.81c-1.46,0-2.23,1.09-2.23,2.54h-1.2
					c0-2.05,1.46-3.5,3.53-3.5c1.92,0,3.28,1.12,3.28,2.72c0,1.31-0.81,1.99-1.7,2.2c0.81,0.24,2.11,0.92,2.11,2.77
					c0,2.08-1.64,3.11-3.73,3.11C732.25,250.5,730.87,248.95,730.87,246.86z"/>
			</g>
		</g>
		<path fill="#D9D9D9" d="M1058.86,616H307.14c-27.41,0-49.64-22.22-49.64-49.64v-76.72c0-27.41,22.22-49.64,49.64-49.64h751.72
			c27.41,0,49.64,22.22,49.64,49.64v76.72C1108.5,593.78,1086.28,616,1058.86,616z"/>
		<g>
			
				<path fill="none" stroke="#7372A6" stroke-width="1.0088" stroke-linecap="round" stroke-linejoin="round" stroke-dasharray="12.1228,12.1228" d="
				M274.5,568.86v-79.22c0-18.03,14.61-32.64,32.64-32.64h751.72c18.03,0,32.64,14.61,32.64,32.64v79.22
				c0,18.03-14.61,32.64-32.64,32.64H307.14C289.11,601.5,274.5,586.89,274.5,568.86z"/>
		</g>
		<path fill="#BABAC9" d="M686.45,504.77c0,0.91-0.74,1.64-1.64,1.64h-9.87c-3.57,0-6.47-2.9-6.47-6.47v-7.07
			c0-3.56,2.9-6.45,6.47-6.45h0.67c0.91,0,1.64,0.74,1.64,1.64s-0.74,1.64-1.64,1.64h-0.67c-1.75,0-3.18,1.42-3.18,3.17v7.07
			c0,1.75,1.43,3.18,3.18,3.18h9.87C685.71,503.12,686.45,503.86,686.45,504.77z M691.08,486.42h-0.67c-0.91,0-1.64,0.74-1.64,1.64
			s0.74,1.64,1.64,1.64h0.67c1.75,0,3.17,1.42,3.17,3.17v7.07c0,1.75-1.42,3.18-3.17,3.18h-0.7c-0.91,0-1.64,0.74-1.64,1.64
			s0.74,1.64,1.64,1.64h0.7c3.56,0,6.46-2.9,6.46-6.47v-7.07C697.54,489.32,694.64,486.42,691.08,486.42z M688.87,481.83l-4.7-4.7
			c-0.15-0.15-0.33-0.27-0.54-0.36c-0.4-0.17-0.86-0.16-1.26,0c-0.2,0.08-0.38,0.2-0.54,0.36l-4.7,4.7
			c-0.31,0.31-0.48,0.72-0.48,1.16c0,0.44,0.17,0.85,0.48,1.16c0.64,0.64,1.68,0.64,2.33,0l1.9-1.89v15.03
			c0,0.91,0.74,1.64,1.64,1.64c0.91,0,1.64-0.74,1.64-1.64v-15.03l1.9,1.89c0.62,0.62,1.7,0.62,2.33,0
			C689.51,483.52,689.51,482.48,688.87,481.83z"/>
		<g>
			<g>
				<path fill="#BABAC9" d="M442.19,525.59h4.27c3.38,0,5.81,2.29,5.81,5.55c0,3.33-2.43,5.65-5.81,5.65h-4.27V525.59z
					 M450.96,531.15c0-2.61-1.82-4.51-4.5-4.51h-3.02v9.12h3.02C449.13,535.76,450.96,533.82,450.96,531.15z"/>
				<path fill="#BABAC9" d="M454.73,528.8h5.04v0.99h-4.67v7.01h-1.15v-7.14C453.95,529.12,454.23,528.8,454.73,528.8z"/>
				<path fill="#BABAC9" d="M459.99,532.78c0-2.5,1.62-4.24,4.07-4.24c1.54,0,2.62,0.69,3.22,1.83v-1.57h1.09v8h-1.09v-1.58
					c-0.59,1.14-1.68,1.84-3.22,1.84C461.61,537.06,459.99,535.28,459.99,532.78z M467.28,532.77c0-1.9-1.3-3.2-3.14-3.2
					c-1.81,0-2.93,1.3-2.93,3.2c0,1.91,1.12,3.27,2.93,3.27C465.98,536.03,467.28,534.67,467.28,532.77z"/>
				<path fill="#BABAC9" d="M469.71,532.78c0-2.5,1.62-4.24,4.07-4.24c1.54,0,2.62,0.69,3.22,1.83v-1.57h1.15v10.34
					c0,0.54-0.32,0.86-0.88,0.86h-6.66v-0.99h6.39v-3.79c-0.59,1.14-1.68,1.84-3.22,1.84C471.32,537.06,469.71,535.28,469.71,532.78
					z M476.99,532.77c0-1.9-1.3-3.2-3.14-3.2c-1.81,0-2.93,1.3-2.93,3.2c0,1.91,1.12,3.27,2.93,3.27
					C475.69,536.03,476.99,534.67,476.99,532.77z"/>
				<path fill="#BABAC9" d="M490.17,536.8c-0.3-0.3-0.59-0.61-1.01-1.06c-0.93,0.86-1.97,1.23-3.15,1.23c-2.1,0-3.31-1.41-3.31-3.03
					c0-1.47,0.88-2.48,2.11-3.15v-0.05c-0.56-0.7-0.9-1.49-0.9-2.26c0-1.31,0.94-2.66,2.74-2.66c1.34,0,2.38,0.9,2.38,2.29
					c0,1.14-0.66,2.03-2.37,2.88v0.05c0.91,1.06,1.94,2.24,2.62,3.01c0.5-0.75,0.83-1.79,1.04-3.15h1.28
					c-0.29,1.7-0.75,3.04-1.55,3.99c0.58,0.61,1.14,1.22,1.78,1.91H490.17z M488.48,534.94c-0.64-0.7-1.84-2.02-3.04-3.39
					c-0.58,0.37-1.39,1.06-1.39,2.19c0,1.23,0.91,2.18,2.21,2.18C487.18,535.92,487.96,535.5,488.48,534.94z M485.2,528.36
					c0,0.77,0.35,1.36,0.82,1.94c1.09-0.62,1.79-1.2,1.79-2.11c0-0.66-0.37-1.39-1.25-1.39C485.66,526.8,485.2,527.53,485.2,528.36z
					"/>
				<path fill="#BABAC9" d="M495.42,532.78c0-2.5,1.62-4.24,4.07-4.24c1.54,0,2.62,0.69,3.22,1.83v-4.77h1.15v11.21h-1.15v-1.58
					c-0.59,1.14-1.68,1.84-3.22,1.84C497.03,537.06,495.42,535.28,495.42,532.78z M502.7,532.77c0-1.9-1.3-3.2-3.14-3.2
					c-1.81,0-2.93,1.3-2.93,3.2c0,1.91,1.12,3.27,2.93,3.27C501.4,536.03,502.7,534.67,502.7,532.77z"/>
				<path fill="#BABAC9" d="M506.55,528.8h5.04v0.99h-4.67v7.01h-1.15v-7.14C505.77,529.12,506.06,528.8,506.55,528.8z"/>
				<path fill="#BABAC9" d="M511.82,532.77c0-2.46,1.9-4.23,4.35-4.23c2.45,0,4.37,1.76,4.37,4.23s-1.92,4.29-4.37,4.29
					C513.72,537.06,511.82,535.23,511.82,532.77z M519.32,532.77c0-1.87-1.38-3.2-3.15-3.2c-1.78,0-3.14,1.33-3.14,3.2
					c0,1.87,1.36,3.27,3.14,3.27C517.95,536.03,519.32,534.64,519.32,532.77z"/>
				<path fill="#BABAC9" d="M521.93,528.8h1.15v1.57c0.59-1.14,1.68-1.83,3.22-1.83c2.45,0,4.07,1.75,4.07,4.24
					s-1.62,4.27-4.07,4.27c-1.54,0-2.62-0.7-3.22-1.84V540h-1.15V528.8z M529.15,532.77c0-1.9-1.12-3.2-2.93-3.2
					c-1.84,0-3.14,1.3-3.14,3.2c0,1.91,1.3,3.27,3.14,3.27C528.03,536.03,529.15,534.67,529.15,532.77z"/>
				<path fill="#BABAC9" d="M533.93,528.8h1.33l2.85,6.75l2.9-6.75h1.25l-3.57,8v2.32c0,0.56-0.32,0.88-0.88,0.88h-2.98v-0.99h2.71
					v-2.21L533.93,528.8z"/>
				<path fill="#BABAC9" d="M542.55,532.77c0-2.46,1.91-4.23,4.35-4.23s4.37,1.76,4.37,4.23s-1.92,4.29-4.37,4.29
					S542.55,535.23,542.55,532.77z M550.06,532.77c0-1.87-1.38-3.2-3.15-3.2s-3.14,1.33-3.14,3.2c0,1.87,1.36,3.27,3.14,3.27
					S550.06,534.64,550.06,532.77z"/>
				<path fill="#BABAC9" d="M552.51,533.5v-4.71h1.15v4.61c0,1.95,0.91,2.62,2.38,2.62c1.78,0,2.85-1.23,2.85-3.25v-3.99h1.15v8
					h-1.15v-1.58c-0.66,1.22-1.66,1.84-3.03,1.84C553.67,537.06,552.51,535.79,552.51,533.5z"/>
				<path fill="#BABAC9" d="M562.75,528.8h5.04v0.99h-4.67v7.01h-1.15v-7.14C561.96,529.12,562.25,528.8,562.75,528.8z"/>
				<path fill="#BABAC9" d="M572.03,528.8h5.04v0.99h-4.67v7.01h-1.15v-7.14C571.24,529.12,571.53,528.8,572.03,528.8z"/>
				<path fill="#BABAC9" d="M577.29,532.77c0-2.48,1.76-4.23,4.4-4.23c2.54,0,4.21,1.62,4.21,4.5h-7.43
					c0.11,1.76,1.39,2.99,3.14,2.99c1.49,0,2.66-0.75,3.04-2h1.15c-0.5,1.86-2.13,3.03-4.23,3.03
					C579.05,537.06,577.29,535.28,577.29,532.77z M584.68,532.05c-0.26-1.5-1.34-2.48-2.95-2.48c-1.41,0-2.9,0.7-3.22,2.48H584.68z"
					/>
				<path fill="#BABAC9" d="M586.76,532.78c0-2.5,1.62-4.24,4.07-4.24c1.54,0,2.62,0.69,3.22,1.83v-1.57h1.15V540h-1.15v-4.79
					c-0.59,1.14-1.68,1.84-3.22,1.84C588.38,537.06,586.76,535.28,586.76,532.78z M594.04,532.77c0-1.9-1.3-3.2-3.14-3.2
					c-1.81,0-2.93,1.3-2.93,3.2c0,1.91,1.12,3.27,2.93,3.27C592.75,536.03,594.04,534.67,594.04,532.77z"/>
				<path fill="#BABAC9" d="M596.95,533.5v-4.71h1.15v4.61c0,1.95,0.91,2.62,2.38,2.62c1.78,0,2.85-1.23,2.85-3.25v-3.99h1.15v8
					h-1.15v-1.58c-0.66,1.22-1.66,1.84-3.03,1.84C598.12,537.06,596.95,535.79,596.95,533.5z"/>
				<path fill="#BABAC9" d="M606.36,525.59h1.25v1.62h-1.25V525.59z M606.41,528.8h1.15v8h-1.15V528.8z"/>
				<path fill="#BABAC9" d="M610.27,528.8h5.04v0.99h-4.67v7.01h-1.15v-7.14C609.48,529.12,609.77,528.8,610.27,528.8z"/>
				<path fill="#BABAC9" d="M615.53,532.77c0-2.48,1.76-4.23,4.4-4.23c2.54,0,4.21,1.62,4.21,4.5h-7.43
					c0.11,1.76,1.39,2.99,3.14,2.99c1.49,0,2.66-0.75,3.04-2h1.15c-0.5,1.86-2.13,3.03-4.23,3.03
					C617.29,537.06,615.53,535.28,615.53,532.77z M622.92,532.05c-0.26-1.5-1.34-2.48-2.94-2.48c-1.41,0-2.9,0.7-3.22,2.48H622.92z"
					/>
				<path fill="#BABAC9" d="M625.53,528.8h1.15v1.58c0.46-0.88,1.33-1.84,2.87-1.84c1.82,0,2.62,1.18,2.96,2.27
					c0.38-0.91,1.23-2.27,3.11-2.27c2.54,0,3.17,1.78,3.17,3.43v4.83h-1.15v-4.51c0-1.15-0.19-2.72-2.02-2.72
					c-2.14,0-2.88,1.99-2.88,3.41v3.83h-1.15v-4.35c0-1.15-0.35-2.86-2.19-2.86c-1.73,0-2.61,1.44-2.71,2.77v4.45h-1.15V528.8z"/>
				<path fill="#BABAC9" d="M640.01,532.77c0-2.48,1.76-4.23,4.4-4.23c2.54,0,4.21,1.62,4.21,4.5h-7.43
					c0.11,1.76,1.39,2.99,3.14,2.99c1.49,0,2.66-0.75,3.04-2h1.15c-0.5,1.86-2.13,3.03-4.23,3.03
					C641.77,537.06,640.01,535.28,640.01,532.77z M647.4,532.05c-0.26-1.5-1.34-2.48-2.94-2.48c-1.41,0-2.9,0.7-3.22,2.48H647.4z"/>
				<path fill="#BABAC9" d="M650.01,528.8h1.15v1.58c0.66-1.22,1.67-1.84,3.03-1.84c2.19,0,3.36,1.26,3.36,3.55v4.71h-1.15v-4.61
					c0-1.79-0.91-2.62-2.38-2.62c-1.78,0-2.85,1.23-2.85,3.25v3.99h-1.15V528.8z"/>
				<path fill="#BABAC9" d="M660.1,535.92v-6.13h-1.76v-0.99h1.76v-2.08h1.15v2.08h2.48v0.99h-2.48v6.02h2.48v0.99h-2.77
					C660.43,536.8,660.1,536.48,660.1,535.92z"/>
				<path fill="#BABAC9" d="M666.28,540l6.24-15.37h0.98L667.26,540H666.28z"/>
				<path fill="#BABAC9" d="M677.7,528.8h5.04v0.99h-4.67v7.01h-1.15v-7.14C676.92,529.12,677.21,528.8,677.7,528.8z"/>
				<path fill="#BABAC9" d="M682.97,532.77c0-2.48,1.76-4.23,4.4-4.23c2.54,0,4.21,1.62,4.21,4.5h-7.43
					c0.11,1.76,1.39,2.99,3.14,2.99c1.49,0,2.66-0.75,3.04-2h1.15c-0.5,1.86-2.13,3.03-4.23,3.03
					C684.73,537.06,682.97,535.28,682.97,532.77z M690.36,532.05c-0.26-1.5-1.34-2.48-2.95-2.48c-1.41,0-2.9,0.7-3.22,2.48H690.36z"
					/>
				<path fill="#BABAC9" d="M694.98,528.8h2.48v0.99h-2.48v7.01h-1.15v-7.01h-1.74v-0.99h1.74v-2.32c0-0.56,0.32-0.88,0.88-0.88
					h2.75v0.99h-2.48V528.8z"/>
				<path fill="#BABAC9" d="M697.81,532.77c0-2.48,1.76-4.23,4.4-4.23c2.54,0,4.21,1.62,4.21,4.5H699c0.11,1.76,1.39,2.99,3.14,2.99
					c1.49,0,2.66-0.75,3.04-2h1.15c-0.5,1.86-2.13,3.03-4.23,3.03C699.58,537.06,697.81,535.28,697.81,532.77z M705.21,532.05
					c-0.26-1.5-1.34-2.48-2.95-2.48c-1.41,0-2.9,0.7-3.22,2.48H705.21z"/>
				<path fill="#BABAC9" d="M708.6,528.8h5.04v0.99h-4.67v7.01h-1.15v-7.14C707.82,529.12,708.1,528.8,708.6,528.8z"/>
				<path fill="#BABAC9" d="M713.86,532.77c0-2.48,1.76-4.23,4.4-4.23c2.54,0,4.21,1.62,4.21,4.5h-7.43
					c0.11,1.76,1.39,2.99,3.14,2.99c1.49,0,2.66-0.75,3.04-2h1.15c-0.5,1.86-2.13,3.03-4.23,3.03
					C715.62,537.06,713.86,535.28,713.86,532.77z M721.26,532.05c-0.26-1.5-1.34-2.48-2.95-2.48c-1.41,0-2.9,0.7-3.22,2.48H721.26z"
					/>
				<path fill="#BABAC9" d="M723.86,528.8h1.15v1.58c0.66-1.22,1.67-1.84,3.03-1.84c2.19,0,3.36,1.26,3.36,3.55v4.71h-1.15v-4.61
					c0-1.79-0.91-2.62-2.38-2.62c-1.78,0-2.85,1.23-2.85,3.25v3.99h-1.15V528.8z"/>
				<path fill="#BABAC9" d="M732.63,532.78c0-2.56,1.7-4.24,4.1-4.24c2.11,0,3.39,1.07,3.87,2.85h-1.15
					c-0.34-1.1-1.22-1.83-2.72-1.83c-1.74,0-2.94,1.39-2.94,3.22c0,1.82,1.2,3.23,2.94,3.23c1.5,0,2.4-0.74,2.74-1.84h1.15
					c-0.48,1.78-1.78,2.87-3.89,2.87C734.33,537.04,732.63,535.34,732.63,532.78z"/>
				<path fill="#BABAC9" d="M741.48,532.77c0-2.48,1.76-4.23,4.4-4.23c2.54,0,4.21,1.62,4.21,4.5h-7.43
					c0.11,1.76,1.39,2.99,3.14,2.99c1.49,0,2.66-0.75,3.04-2h1.15c-0.5,1.86-2.13,3.03-4.22,3.03
					C743.24,537.06,741.48,535.28,741.48,532.77z M748.87,532.05c-0.26-1.5-1.34-2.48-2.94-2.48c-1.41,0-2.9,0.7-3.22,2.48H748.87z"
					/>
				<path fill="#BABAC9" d="M754.05,532.78c0-2.5,1.62-4.24,4.07-4.24c1.54,0,2.62,0.69,3.22,1.83v-4.77h1.15v11.21h-1.15v-1.58
					c-0.59,1.14-1.68,1.84-3.22,1.84C755.67,537.06,754.05,535.28,754.05,532.78z M761.34,532.77c0-1.9-1.3-3.2-3.14-3.2
					c-1.81,0-2.93,1.3-2.93,3.2c0,1.91,1.12,3.27,2.93,3.27C760.04,536.03,761.34,534.67,761.34,532.77z"/>
				<path fill="#BABAC9" d="M763.88,532.77c0-2.46,1.9-4.23,4.35-4.23s4.37,1.76,4.37,4.23s-1.92,4.29-4.37,4.29
					S763.88,535.23,763.88,532.77z M771.39,532.77c0-1.87-1.38-3.2-3.15-3.2c-1.78,0-3.14,1.33-3.14,3.2c0,1.87,1.36,3.27,3.14,3.27
					C770.01,536.03,771.39,534.64,771.39,532.77z"/>
				<path fill="#BABAC9" d="M773.46,532.78c0-2.56,1.7-4.24,4.1-4.24c2.11,0,3.39,1.07,3.87,2.85h-1.15
					c-0.34-1.1-1.22-1.83-2.72-1.83c-1.74,0-2.95,1.39-2.95,3.22c0,1.82,1.2,3.23,2.95,3.23c1.5,0,2.4-0.74,2.74-1.84h1.15
					c-0.48,1.78-1.78,2.87-3.89,2.87C775.16,537.04,773.46,535.34,773.46,532.78z"/>
				<path fill="#BABAC9" d="M782.68,533.5v-4.71h1.15v4.61c0,1.95,0.91,2.62,2.38,2.62c1.78,0,2.85-1.23,2.85-3.25v-3.99h1.15v8
					h-1.15v-1.58c-0.66,1.22-1.67,1.84-3.03,1.84C783.85,537.06,782.68,535.79,782.68,533.5z"/>
				<path fill="#BABAC9" d="M792.13,528.8h1.15v1.58c0.46-0.88,1.33-1.84,2.87-1.84c1.83,0,2.62,1.18,2.96,2.27
					c0.38-0.91,1.23-2.27,3.11-2.27c2.54,0,3.17,1.78,3.17,3.43v4.83h-1.15v-4.51c0-1.15-0.19-2.72-2.02-2.72
					c-2.14,0-2.88,1.99-2.88,3.41v3.83h-1.15v-4.35c0-1.15-0.35-2.86-2.19-2.86c-1.73,0-2.61,1.44-2.71,2.77v4.45h-1.15V528.8z"/>
				<path fill="#BABAC9" d="M806.61,532.77c0-2.48,1.76-4.23,4.4-4.23c2.54,0,4.21,1.62,4.21,4.5h-7.43
					c0.11,1.76,1.39,2.99,3.14,2.99c1.49,0,2.66-0.75,3.04-2h1.15c-0.5,1.86-2.13,3.03-4.23,3.03
					C808.37,537.06,806.61,535.28,806.61,532.77z M814.01,532.05c-0.26-1.5-1.34-2.48-2.95-2.48c-1.41,0-2.9,0.7-3.22,2.48H814.01z"
					/>
				<path fill="#BABAC9" d="M816.61,528.8h1.15v1.58c0.66-1.22,1.66-1.84,3.03-1.84c2.19,0,3.36,1.26,3.36,3.55v4.71H823v-4.61
					c0-1.79-0.91-2.62-2.38-2.62c-1.78,0-2.85,1.23-2.85,3.25v3.99h-1.15V528.8z"/>
				<path fill="#BABAC9" d="M826.71,535.92v-6.13h-1.76v-0.99h1.76v-2.08h1.15v2.08h2.48v0.99h-2.48v6.02h2.48v0.99h-2.77
					C827.03,536.8,826.71,536.48,826.71,535.92z"/>
				<path fill="#BABAC9" d="M834.25,531.82c0-2.3,0.74-4.59,2.08-6.87h1.04c-1.52,2.27-2.08,4.56-2.08,6.87
					c0,2.32,0.56,4.56,2.08,6.87h-1.04C834.98,536.38,834.25,534.14,834.25,531.82z"/>
				<path fill="#BABAC9" d="M841.59,533.5v-4.71h1.15v4.61c0,1.95,0.91,2.62,2.38,2.62c1.78,0,2.85-1.23,2.85-3.25v-3.99h1.15v8
					h-1.15v-1.58c-0.66,1.22-1.67,1.84-3.03,1.84C842.76,537.06,841.59,535.79,841.59,533.5z"/>
				<path fill="#BABAC9" d="M851.05,528.8h1.15v1.57c0.59-1.14,1.68-1.83,3.22-1.83c2.45,0,4.07,1.75,4.07,4.24
					s-1.62,4.27-4.07,4.27c-1.54,0-2.62-0.7-3.22-1.84V540h-1.15V528.8z M858.26,532.77c0-1.9-1.12-3.2-2.93-3.2
					c-1.84,0-3.14,1.3-3.14,3.2c0,1.91,1.3,3.27,3.14,3.27C857.14,536.03,858.26,534.67,858.26,532.77z"/>
				<path fill="#BABAC9" d="M861.67,535.92v-6.13h-1.76v-0.99h1.76v-2.08h1.15v2.08h2.48v0.99h-2.48v6.02h2.48v0.99h-2.77
					C861.99,536.8,861.67,536.48,861.67,535.92z"/>
				<path fill="#BABAC9" d="M865.89,532.77c0-2.46,1.91-4.23,4.35-4.23c2.45,0,4.37,1.76,4.37,4.23s-1.92,4.29-4.37,4.29
					C867.8,537.06,865.89,535.23,865.89,532.77z M873.4,532.77c0-1.87-1.38-3.2-3.15-3.2c-1.78,0-3.14,1.33-3.14,3.2
					c0,1.87,1.36,3.27,3.14,3.27C872.02,536.03,873.4,534.64,873.4,532.77z"/>
				<path fill="#BABAC9" d="M881.49,526.64h-3.03v-1.04h3.75c0.34,0,0.53,0.19,0.53,0.53v10.68h-1.25V526.64z"/>
				<path fill="#BABAC9" d="M884.6,531.15c0-3.57,1.66-5.81,4.54-5.81c2.91,0,4.58,2.24,4.58,5.81c0,3.63-1.66,5.91-4.58,5.91
					C886.26,537.06,884.6,534.78,884.6,531.15z M892.41,531.15c0-2.82-1.1-4.77-3.27-4.77c-2.13,0-3.23,1.95-3.23,4.77
					c0,2.88,1.1,4.87,3.23,4.87C891.3,536.02,892.41,534.03,892.41,531.15z"/>
				<path fill="#BABAC9" d="M896.77,527.13v9.67h-1.2v-11.21h1.7l4.35,9.62l4.1-9.62h1.78v11.21h-1.2v-9.67l-4.15,9.67h-1.14
					L896.77,527.13z"/>
				<path fill="#BABAC9" d="M910.37,525.59h5.46c2.32,0,3.75,1.04,3.75,2.69c0,1.17-0.77,2-2.19,2.35v0.08
					c1.54,0.35,2.51,1.28,2.51,2.79c0,2-1.65,3.3-4.23,3.3h-5.3V525.59z M918.26,528.28c0-1.04-0.82-1.65-2.43-1.65h-4.21v3.57h4.05
					C917.35,530.2,918.26,529.36,918.26,528.28z M918.58,533.5c0-1.26-0.91-2.26-2.91-2.26h-4.05v4.51h4.05
					C917.67,535.76,918.58,534.77,918.58,533.5z"/>
				<path fill="#BABAC9" d="M922.77,531.82c0-2.3-0.56-4.59-2.08-6.87h1.04c1.34,2.27,2.08,4.56,2.08,6.87
					c0,2.32-0.74,4.56-2.08,6.87h-1.04C922.21,536.38,922.77,534.14,922.77,531.82z"/>
			</g>
		</g>
		<g>
			<g>
				<path fill="#EFEEEF" d="M725.19,581.85h-84.38c-6.52,0-11.81-5.29-11.81-11.81l0,0c0-6.52,5.29-11.81,11.81-11.81h84.38
					c6.52,0,11.81,5.29,11.81,11.81l0,0C737,576.56,731.71,581.85,725.19,581.85z"/>
			</g>
			<g>
				<g>
					<path fill="#7372A6" d="M651.22,570c0-2.18,1.46-3.72,3.62-3.72c2.05,0,3.21,1.17,3.49,2.66h-0.8
						c-0.25-1.05-1.02-1.99-2.69-1.99c-1.71,0-2.78,1.3-2.78,3.06c0,1.78,1.07,3.12,2.78,3.12c1.67,0,2.44-0.94,2.69-1.99h0.8
						c-0.28,1.49-1.44,2.66-3.49,2.66C652.68,573.78,651.22,572.22,651.22,570z"/>
					<path fill="#7372A6" d="M659.41,566.44h0.74v3.07c0.42-0.78,1.07-1.18,1.94-1.18c1.4,0,2.15,0.81,2.15,2.28v3.01h-0.74v-2.95
						c0-1.15-0.58-1.68-1.53-1.68c-1.14,0-1.83,0.79-1.83,2.08v2.55h-0.74V566.44z"/>
					<path fill="#7372A6" d="M665.03,571.03c0-1.58,1.22-2.71,2.79-2.71s2.8,1.13,2.8,2.71s-1.23,2.75-2.8,2.75
						S665.03,572.61,665.03,571.03z M669.84,571.03c0-1.2-0.88-2.05-2.02-2.05s-2.01,0.85-2.01,2.05c0,1.2,0.87,2.09,2.01,2.09
						S669.84,572.23,669.84,571.03z"/>
					<path fill="#7372A6" d="M671.17,571.03c0-1.58,1.22-2.71,2.79-2.71c1.57,0,2.8,1.13,2.8,2.71s-1.23,2.75-2.8,2.75
						C672.39,573.78,671.17,572.61,671.17,571.03z M675.98,571.03c0-1.2-0.88-2.05-2.02-2.05c-1.14,0-2.01,0.85-2.01,2.05
						c0,1.2,0.87,2.09,2.01,2.09C675.1,573.13,675.98,572.23,675.98,571.03z"/>
					<path fill="#7372A6" d="M677.16,571.94h0.74c0,0.6,0.35,1.2,1.57,1.2c1.12,0,1.58-0.42,1.58-0.9c0-1.35-3.76-0.33-3.76-2.34
						c0-0.95,0.75-1.57,2.07-1.57c1.35,0,2.33,0.65,2.33,1.83h-0.74c0-0.76-0.68-1.17-1.61-1.17c-0.84,0-1.31,0.35-1.31,0.83
						c0,1.39,3.76,0.2,3.76,2.36c0,1.09-0.95,1.62-2.32,1.62C677.97,573.79,677.16,573.11,677.16,571.94z"/>
					<path fill="#7372A6" d="M682.34,571.03c0-1.59,1.13-2.71,2.82-2.71c1.63,0,2.7,1.04,2.7,2.88h-4.76
						c0.07,1.13,0.89,1.92,2.01,1.92c0.95,0,1.7-0.48,1.95-1.28h0.74c-0.32,1.19-1.36,1.94-2.71,1.94
						C683.47,573.78,682.34,572.64,682.34,571.03z M687.08,570.57c-0.16-0.96-0.86-1.59-1.89-1.59c-0.9,0-1.86,0.45-2.06,1.59
						H687.08z"/>
					<path fill="#7372A6" d="M690.4,571.04c0-1.6,1.04-2.72,2.6-2.72c0.98,0,1.68,0.44,2.06,1.17v-1h0.7v5.13h-0.7v-1.02
						c-0.38,0.73-1.08,1.18-2.06,1.18C691.43,573.78,690.4,572.64,690.4,571.04z M695.06,571.03c0-1.22-0.83-2.05-2.01-2.05
						c-1.16,0-1.88,0.83-1.88,2.05c0,1.22,0.72,2.09,1.88,2.09C694.23,573.13,695.06,572.25,695.06,571.03z"/>
					<path fill="#7372A6" d="M699.16,566.44h5.07v0.67h-4.27v2.3h3.28v0.67h-3.28v3.55h-0.8V566.44z"/>
					<path fill="#7372A6" d="M704.87,566.44h0.8v1.04h-0.8V566.44z M704.9,568.49h0.74v5.13h-0.74V568.49z"/>
					<path fill="#7372A6" d="M706.87,573.14v-6.7h0.74v6.54h1.58v0.64h-1.75C707.08,573.62,706.87,573.44,706.87,573.14z"/>
					<path fill="#7372A6" d="M709.26,571.03c0-1.59,1.13-2.71,2.82-2.71c1.63,0,2.7,1.04,2.7,2.88h-4.76
						c0.07,1.13,0.89,1.92,2.01,1.92c0.95,0,1.7-0.48,1.95-1.28h0.74c-0.32,1.19-1.36,1.94-2.71,1.94
						C710.39,573.78,709.26,572.64,709.26,571.03z M714,570.57c-0.16-0.96-0.86-1.59-1.89-1.59c-0.9,0-1.86,0.45-2.06,1.59H714z"/>
				</g>
			</g>
		</g>
	</g>
</g>
</svg>
