<svg xmlns="http://www.w3.org/2000/svg" version="1.1" viewBox="0 0 168.83 27.68">
<g>
  <path fill="#EFEEEF" d="M73.53,22.43c1.48-4.32,6.49-18.98,17.17-21.69c0.55-0.14,1.3-0.3,2.24-0.38c0.55-0.05,0.81,0.66,0.36,0.98v0c-1.49,1.05-3.44,2.45-5.68,4.7c-3.36,3.37-5.77,6.24-5.88,6.37c-2.11,2.52-4.84,5.93-7.9,10.18C73.72,22.76,73.47,22.63,73.53,22.43L73.53,22.43z M78.43,27.33c4.32-1.48,18.98-6.49,21.69-17.17c0.14-0.55,0.3-1.3,0.38-2.24c0.05-0.55-0.66-0.81-0.98-0.36v0c-1.05,1.49-2.45,3.44-4.7,5.68c-3.37,3.36-6.24,5.77-6.37,5.88c-2.52,2.11-5.93,4.84-10.18,7.9C78.1,27.14,78.23,27.4,78.43,27.33L78.43,27.33z M98.4,2.46c-1.07-1.07-4.51,0.63-8.85,4.98c-8.35,8.35-13.91,15.99-16.28,19.47c-0.3,0.45,0.23,0.98,0.68,0.68c3.48-2.37,11.12-7.93,19.47-16.28C97.77,6.97,99.47,3.53,98.4,2.46z M75.43,13.55c1.27-2.95,3.26-7.43,7.59-11.02c0.53-0.44,1.21-0.96,2.05-1.51c0.52-0.34,0.17-1.14-0.43-1c-2.33,0.56-4.55,1.75-6.37,3.57c-0.52,0.52-0.98,1.06-1.39,1.63c-1.6,2.21-2.45,4.81-2.54,7.42c-0.01,0.4-0.01,0.8,0.01,1.2c0.03,0.49,0.7,0.6,0.89,0.15C75.3,13.84,75.36,13.69,75.43,13.55z M100.84,16.22c0.14-0.61-0.66-0.96-1-0.43c-0.54,0.84-1.07,1.52-1.51,2.05c-3.59,4.33-8.08,6.32-11.02,7.59c-0.15,0.06-0.3,0.13-0.44,0.19c-0.45,0.19-0.34,0.86,0.15,0.89c0.4,0.02,0.8,0.03,1.2,0.01c2.61-0.09,5.2-0.93,7.42-2.53c0.57-0.41,1.12-0.88,1.63-1.39C99.1,20.77,100.29,18.56,100.84,16.22z"/>
  <path fill="#EFEEEF" d="M0,15.12h2.4c0,0.94,0.63,1.8,2.28,1.8c1.4,0,2.09-0.54,2.09-1.25c0-2.11-6.46-0.08-6.46-3.93c0-2.05,1.72-3.18,4.31-3.18c2.8,0,4.6,1.32,4.6,3.41H6.75c0-1-0.92-1.53-2.11-1.53c-1.05,0-1.74,0.42-1.74,1.07c0,1.97,6.5-0.1,6.5,3.99c0,2.28-1.99,3.28-4.64,3.28C1.61,18.78,0,17.32,0,15.12z"/>
  <path fill="#EFEEEF" d="M9.54,8.87h2.57l2.36,6.46l2.4-6.46h2.51l-3.68,9.58v1.57c0,1.67-0.61,2.26-2.28,2.26h-2.89v-2.09h2.74v-1.74L9.54,8.87z"/>
  <path fill="#EFEEEF" d="M20.29,8.87h2.51v1.72c0.73-1.32,1.82-2.03,3.37-2.03c2.41,0,3.58,1.46,3.58,4.02v5.86h-2.51v-5.17c0-1.72-0.79-2.43-1.99-2.43c-1.51,0-2.45,1.05-2.45,2.86v4.75h-2.51V8.87z"/>
  <path fill="#EFEEEF" d="M30.91,13.62c0-3.01,2.4-5.06,5.25-5.06s5.27,2.05,5.27,5.06c0,3.01-2.41,5.14-5.27,5.14S30.91,16.63,30.91,13.62z M38.86,13.62c0-1.78-1.19-2.86-2.7-2.86s-2.68,1.07-2.68,2.86c0,1.78,1.17,2.93,2.68,2.93S38.86,15.4,38.86,13.62z"/>
  <path fill="#EFEEEF" d="M44.59,8.87h5.48v2.09h-4.85v7.49h-2.51v-7.67C42.72,9.38,43.21,8.87,44.59,8.87z"/>
  <path fill="#EFEEEF" d="M50.27,13.64c0-3.05,1.88-5.08,4.5-5.08c1.49,0,2.63,0.63,3.32,1.71v-1.4h2.43v9.58h-2.43v-1.44c-0.69,1.09-1.82,1.74-3.32,1.74C52.14,18.76,50.27,16.67,50.27,13.64z M58.07,13.62c0-1.8-1.13-2.86-2.68-2.86c-1.53,0-2.55,1.05-2.55,2.86c0,1.8,1.02,2.93,2.55,2.93C56.94,16.55,58.07,15.42,58.07,13.62z"/>
  <path fill="#EFEEEF" d="M112.36,14.16c0-2.72,1.79-4.43,4.08-4.43c1.73,0,2.92,0.91,3.45,2.36V6.64h0.57v11.74h-0.57v-2.16c-0.54,1.49-1.73,2.43-3.45,2.43C114.15,18.65,112.36,16.89,112.36,14.16z M119.89,14.16c0-2.3-1.43-3.86-3.44-3.86c-1.88,0-3.51,1.46-3.51,3.86c0,2.4,1.63,3.92,3.51,3.92C118.46,18.08,119.89,16.46,119.89,14.16z"/>
  <path fill="#EFEEEF" d="M123.11,6.64h0.69v1.43h-0.69V6.64z M123.14,10h0.6v8.39h-0.6V10z"/>
  <path fill="#EFEEEF" d="M125.69,14.16c0-2.72,1.81-4.43,4.09-4.43c1.74,0,2.92,0.92,3.45,2.41V10h0.59v11.22c0,0.34-0.18,0.52-0.5,0.52h-7.03v-0.55h6.94v-5c-0.54,1.51-1.71,2.47-3.45,2.47C127.5,18.65,125.69,16.89,125.69,14.16z M133.22,14.16c0-2.3-1.41-3.86-3.42-3.86c-1.88,0-3.47,1.46-3.47,3.86c0,2.4,1.59,3.92,3.47,3.92C131.81,18.08,133.22,16.46,133.22,14.16z"/>
  <path fill="#EFEEEF" d="M136.45,6.64h0.69v1.43h-0.69V6.64z M136.49,10h0.6v8.39h-0.6V10z"/>
  <path fill="#EFEEEF" d="M140.83,17.86v-7.31h-1.74V10h1.74V7.82h0.64V10h2.99v0.55h-2.99v7.28h2.99v0.55h-3.1C141.03,18.38,140.83,18.2,140.83,17.86z"/>
  <path fill="#EFEEEF" d="M145.32,14.16c0-2.72,1.88-4.43,4.28-4.43c1.81,0,3.05,0.91,3.62,2.36V10h0.59v8.39h-0.59v-2.16c-0.57,1.49-1.81,2.43-3.62,2.43C147.2,18.65,145.32,16.89,145.32,14.16z M153.22,14.16c0-2.3-1.49-3.86-3.61-3.86c-1.98,0-3.67,1.46-3.67,3.86c0,2.4,1.69,3.92,3.67,3.92C151.73,18.08,153.22,16.46,153.22,14.16z"/>
  <path fill="#EFEEEF" d="M156.48,17.93V6.64h0.6v11.19h3v0.55H157C156.66,18.38,156.48,18.22,156.48,17.93z"/>
  <path fill="#EFEEEF" d="M160.99,15.63h0.62c0,1.24,0.72,2.47,3.3,2.47c2.33,0,3.3-0.96,3.3-1.96c0-2.88-6.88-0.79-6.88-4.04c0-1.36,1.26-2.36,3.47-2.36c2.26,0,3.92,1.06,3.92,2.99h-0.6c0-1.58-1.39-2.41-3.3-2.41c-1.84,0-2.87,0.82-2.87,1.74c0,2.63,6.88,0.5,6.88,4.06c0,1.69-1.63,2.57-3.92,2.57C162.36,18.67,160.99,17.56,160.99,15.63z"/>
</g>
</svg>
