<?xml version="1.0" encoding="utf-8"?>
<svg version="1.1" id="Layer_1" xmlns="http://www.w3.org/2000/svg" xmlns:xlink="http://www.w3.org/1999/xlink" x="0px" y="0px"
	 viewBox="0 0 27.65 27.65" style="enable-background:new 0 0 27.65 27.65;" xml:space="preserve">
<path style="fill:#EEEEF0;" d="M19.17,20.12c-0.25,0-0.49-0.09-0.68-0.28l-3.43-3.43c-0.37-0.37-0.37-0.98,0-1.35
	c0.37-0.37,0.98-0.37,1.35,0l3.43,3.43c0.37,0.37,0.37,0.98,0,1.35C19.66,20.03,19.41,20.12,19.17,20.12z M9.16,19.84L19.84,9.16
	c0.37-0.37,0.37-0.98,0-1.35c-0.37-0.37-0.98-0.37-1.35,0L7.81,18.49c-0.37,0.37-0.37,0.98,0,1.35c0.19,0.19,0.43,0.28,0.68,0.28
	S8.97,20.03,9.16,19.84z M12.59,12.59c0.37-0.37,0.37-0.98,0-1.35L9.16,7.81c-0.37-0.37-0.98-0.37-1.35,0
	c-0.37,0.37-0.37,0.98,0,1.35l3.43,3.43c0.19,0.19,0.43,0.28,0.68,0.28S12.41,12.78,12.59,12.59z"/>
</svg>
