<svg xmlns="http://www.w3.org/2000/svg" version="1.1" viewBox="0 0 27.68 27.68">
<path fill="#EFEEEF" d="M0.35,22.43C1.84,18.12,6.84,3.46,17.52,0.74c0.55-0.14,1.3-0.3,2.24-0.38c0.55-0.05,0.81,0.66,0.36,0.98l0,0c-1.49,1.05-3.44,2.45-5.68,4.7c-3.36,3.37-5.77,6.24-5.88,6.37c-2.11,2.52-4.84,5.93-7.9,10.18C0.54,22.76,0.29,22.63,0.35,22.43L0.35,22.43z M5.25,27.33c4.32-1.48,18.98-6.49,21.69-17.17c0.14-0.55,0.3-1.3,0.38-2.24c0.05-0.55-0.66-0.81-0.98-0.36l0,0c-1.05,1.49-2.45,3.44-4.7,5.68c-3.37,3.36-6.24,5.77-6.37,5.88c-2.52,2.11-5.93,4.84-10.18,7.9C4.92,27.14,5.06,27.4,5.25,27.33L5.25,27.33z M25.22,2.46c-1.07-1.07-4.51,0.63-8.85,4.98C8.02,15.79,2.46,23.43,0.09,26.91c-0.3,0.45,0.23,0.98,0.68,0.68c3.48-2.37,11.12-7.93,19.47-16.28C24.59,6.97,26.29,3.53,25.22,2.46z M2.25,13.55C3.52,10.6,5.51,6.11,9.84,2.52c0.53-0.44,1.21-0.96,2.05-1.51c0.52-0.34,0.17-1.14-0.43-1C9.12,0.57,6.91,1.76,5.09,3.59C4.57,4.1,4.11,4.65,3.69,5.22c-1.6,2.21-2.45,4.81-2.54,7.42c-0.01,0.4-0.01,0.8,0.01,1.2c0.03,0.49,0.7,0.6,0.89,0.15C2.12,13.84,2.18,13.69,2.25,13.55z M27.67,16.22c0.14-0.61-0.66-0.96-1-0.43c-0.54,0.84-1.07,1.52-1.51,2.05c-3.59,4.33-8.08,6.32-11.02,7.59c-0.15,0.06-0.3,0.13-0.44,0.19c-0.45,0.19-0.34,0.86,0.15,0.89c0.4,0.02,0.8,0.03,1.2,0.01c2.61-0.09,5.2-0.93,7.42-2.53c0.57-0.41,1.12-0.88,1.63-1.39C25.92,20.77,27.11,18.56,27.67,16.22z"/>
</svg>
