<svg xmlns="http://www.w3.org/2000/svg" version="1.1" viewBox="0 0 27.65 27.65">
<circle fill="#121320" cx="13.82" cy="13.82" r="13.82"/>
<path fill="#EFEEEF" d="M13.82,7.85c-0.49,0-0.88-0.4-0.88-0.88v-0.9c0-0.49,0.4-0.88,0.88-0.88s0.88,0.4,0.88,0.88v0.9C14.71,7.46,14.31,7.85,13.82,7.85z M19.29,9.6l0.64-0.64c0.34-0.34,0.34-0.9,0-1.25c-0.34-0.34-0.9-0.34-1.25,0l-0.64,0.64c-0.34,0.34-0.34,0.9,0,1.25c0.17,0.17,0.4,0.26,0.62,0.26S19.12,9.78,19.29,9.6z M22.46,13.82c0-0.49-0.4-0.88-0.88-0.88h-0.9c-0.49,0-0.88,0.4-0.88,0.88c0,0.49,0.4,0.88,0.88,0.88h0.9C22.07,14.71,22.46,14.31,22.46,13.82z M19.93,19.93c0.34-0.34,0.34-0.9,0-1.25l-0.64-0.64c-0.34-0.34-0.9-0.34-1.25,0s-0.34,0.9,0,1.25l0.64,0.64c0.17,0.17,0.4,0.26,0.62,0.26S19.76,20.11,19.93,19.93z M14.71,21.58v-0.9c0-0.49-0.4-0.88-0.88-0.88s-0.88,0.4-0.88,0.88v0.9c0,0.49,0.4,0.88,0.88,0.88S14.71,22.07,14.71,21.58z M8.96,19.93l0.64-0.64c0.34-0.34,0.34-0.9,0-1.25s-0.9-0.34-1.25,0l-0.64,0.64c-0.34,0.34-0.34,0.9,0,1.25c0.17,0.17,0.4,0.26,0.62,0.26S8.79,20.11,8.96,19.93z M7.85,13.82c0-0.49-0.4-0.88-0.88-0.88h-0.9c-0.49,0-0.88,0.4-0.88,0.88c0,0.49,0.4,0.88,0.88,0.88h0.9C7.46,14.71,7.85,14.31,7.85,13.82z M9.6,9.6c0.34-0.34,0.34-0.9,0-1.25L8.96,7.71c-0.34-0.34-0.9-0.34-1.25,0c-0.34,0.34-0.34,0.9,0,1.25L8.35,9.6c0.17,0.17,0.4,0.26,0.62,0.26S9.43,9.78,9.6,9.6z M13.82,9.5c-2.39,0-4.33,1.94-4.33,4.33s1.94,4.33,4.33,4.33s4.33-1.94,4.33-4.33S16.21,9.5,13.82,9.5z M13.82,16.41c-1.43,0-2.58-1.16-2.58-2.58s1.16-2.58,2.58-2.58s2.58,1.16,2.58,2.58S15.25,16.41,13.82,16.41z"/>
</svg>
