<?xml version="1.0" encoding="utf-8"?>
<!-- Generator: Adobe Illustrator 27.0.1, SVG Export Plug-In . SVG Version: 6.00 Build 0)  -->
<svg version="1.1" id="Layer_1" xmlns="http://www.w3.org/2000/svg" xmlns:xlink="http://www.w3.org/1999/xlink" x="0px" y="0px"
	 viewBox="0 0 51.83 49.24" enable-background="new 0 0 51.83 49.24" xml:space="preserve">
<g>
	<path fill="#1A1349" d="M50.48,42.75l-1.47-4.48c0.89-1.87,1.36-3.94,1.36-6.04c0-5.71-3.44-10.62-8.36-12.76
		c0.38-0.28,0.79-0.53,1.21-0.76l2.63-1.42c0.73-0.38,1.19-1.14,1.21-1.97c0.02-0.84-0.43-1.62-1.21-2.07l-2.63-1.42
		c-2.23-1.21-4.04-3.03-5.24-5.24L36.53,3.9c-0.43-0.73-1.24-1.17-2.05-1.16c-0.84,0.02-1.59,0.48-1.97,1.19l-1.42,2.65
		c-0.33,0.61-0.71,1.17-1.12,1.72c-2.55-1.19-5.36-1.85-8.36-1.85c-11.04,0-20.02,8.98-20.02,20.02c0,3.11,0.73,6.19,2.1,8.95
		l-2.32,7.03c-0.28,0.81-0.08,1.72,0.51,2.35c0.56,0.6,1.39,0.84,2.17,0.66l8.09-1.36c2.86,1.56,6.12,2.38,9.46,2.38
		c3.01,0,5.86-0.66,8.42-1.87c1.92,0.99,4.09,1.56,6.39,1.56c2.27,0,4.47-0.55,6.42-1.57l5.23,0.88c0.7,0.15,1.44-0.07,1.95-0.6
		C50.54,44.31,50.73,43.5,50.48,42.75z M30.64,12.42c0.84-0.74,1.59-1.59,2.23-2.5c0.41-0.56,0.79-1.16,1.12-1.77l0.53-0.99
		l0.53,0.99c1.51,2.8,3.79,5.06,6.59,6.59l0.98,0.53l-0.98,0.53c-0.79,0.43-1.54,0.93-2.25,1.49c-1.54,1.17-2.85,2.65-3.87,4.33
		c-0.17,0.25-0.31,0.51-0.46,0.78l-0.53,0.98L34,22.4c-0.08-0.15-0.17-0.3-0.26-0.45c-0.58-1.03-1.29-1.97-2.1-2.83
		C30.44,17.8,29,16.68,27.4,15.8l-0.99-0.53l0.99-0.53C28.59,14.1,29.66,13.32,30.64,12.42z M21.61,43.18
		c-2.96,0-5.84-0.78-8.31-2.23c-0.26-0.15-0.55-0.23-0.84-0.23c-0.1,0-0.18,0.02-0.28,0.03l-7.16,1.21l2.04-6.16
		c0.15-0.43,0.1-0.91-0.12-1.31c-1.32-2.45-2.04-5.23-2.04-8.02c0-9.22,7.5-16.71,16.71-16.71c2.04,0,3.99,0.36,5.79,1.06
		c-0.5,0.36-1.03,0.71-1.59,1.01l-2.65,1.44c-0.73,0.43-1.17,1.21-1.16,2.05c0.02,0.84,0.48,1.59,1.19,1.97l2.63,1.42
		c1.01,0.55,1.94,1.21,2.75,2c-3.69,2.5-6.11,6.73-6.11,11.52c0,3.99,1.67,7.58,4.35,10.13C25.18,42.89,23.43,43.18,21.61,43.18z
		 M45.65,38.65l1.08,3.26l-3.9-0.66c-0.38-0.07-0.78,0.02-1.12,0.22c-1.56,0.93-3.39,1.41-5.28,1.41c-0.98,0-1.92-0.13-2.81-0.4
		c-1.26-0.33-2.42-0.89-3.44-1.65c-2.66-1.92-4.38-5.05-4.38-8.59c0-3.76,1.95-7.05,4.9-8.95c0.15,0.23,0.28,0.46,0.41,0.69
		l1.41,2.61c0.4,0.73,1.14,1.19,1.99,1.21c0.02,0,0.02,0,0.03,0c0.83,0,1.6-0.45,2.04-1.19l1.42-2.63c0.38-0.69,0.81-1.36,1.32-1.97
		c0.7,0.18,1.36,0.45,1.99,0.78c3.42,1.77,5.77,5.34,5.77,9.45c0,1.79-0.45,3.56-1.29,5.11C45.55,37.74,45.5,38.22,45.65,38.65z"/>
	<path fill="#6168B0" d="M42.62,15.27l-0.98,0.53c-0.79,0.43-1.54,0.93-2.25,1.49c-1.54,1.17-2.85,2.65-3.87,4.33
		c-0.17,0.25-0.31,0.51-0.46,0.78l-0.53,0.98L34,22.4c-0.08-0.15-0.17-0.3-0.26-0.45c-0.58-1.03-1.29-1.97-2.1-2.83
		C30.44,17.8,29,16.68,27.4,15.8l-0.99-0.53l0.99-0.53c1.19-0.65,2.27-1.42,3.24-2.32c0.84-0.74,1.59-1.59,2.23-2.5
		c0.41-0.56,0.79-1.16,1.12-1.77l0.53-0.99l0.53,0.99c1.51,2.8,3.79,5.06,6.59,6.59L42.62,15.27z"/>
</g>
</svg>
