<?xml version="1.0" encoding="utf-8"?>
<!-- Generator: Adobe Illustrator 27.0.1, SVG Export Plug-In . SVG Version: 6.00 Build 0)  -->
<svg version="1.1" id="Layer_1" xmlns="http://www.w3.org/2000/svg" xmlns:xlink="http://www.w3.org/1999/xlink" x="0px" y="0px"
	 viewBox="0 0 51.83 49.24" enable-background="new 0 0 51.83 49.24" xml:space="preserve">
<g>
	<path fill="#1A1349" d="M30.75,15.16l-3.14-1.69c-2.64-1.44-4.83-3.61-6.26-6.26L19.64,4c-0.51-0.86-1.5-1.39-2.47-1.39
		c-1,0.03-1.92,0.59-2.39,1.46L13.1,7.21c-1.4,2.63-3.6,4.81-6.27,6.26l-3.16,1.71c-0.89,0.51-1.4,1.46-1.4,2.47
		c0.01,1,0.57,1.92,1.43,2.39l3.13,1.69c2.64,1.42,4.83,3.63,6.27,6.27l1.69,3.09c0.47,0.9,1.39,1.46,2.39,1.46h0.05
		c0.97,0,1.9-0.51,2.44-1.43L21.35,28c1.43-2.68,3.63-4.87,6.26-6.27l3.14-1.69c0.86-0.49,1.43-1.39,1.43-2.39
		C32.19,16.64,31.68,15.7,30.75,15.16z M25.71,18.21c-3.34,1.82-6.04,4.53-7.88,7.9l-0.61,1.12l-0.61-1.12
		c-1.83-3.37-4.53-6.07-7.9-7.9l-1.12-0.62l1.12-0.61c3.37-1.82,6.08-4.52,7.9-7.88l0.61-1.13l0.61,1.13
		c1.82,3.36,4.53,6.07,7.88,7.88l1.15,0.61L25.71,18.21z M48.61,7.81c-0.58-0.26-1.28-0.16-1.77,0.26c-2.6,2.2-5.39,4.28-8.31,6.16
		c-0.49,0.3-0.77,0.84-0.77,1.39v29.36c0,0.9,0.74,1.65,1.66,1.65h8.48c0.92,0,1.66-0.74,1.66-1.65V9.32
		C49.56,8.67,49.19,8.09,48.61,7.81z M46.26,43.32h-5.18V16.51c1.77-1.17,3.51-2.43,5.18-3.72V43.32z M32.64,23.53l-1.67,0.9v18.88
		H25.8V28.43c-0.34,0.46-0.66,0.96-0.94,1.47l-0.7,1.29l-1,1.82l-0.03,0.07l-0.05,0.05c-0.19,0.3-0.36,0.61-0.58,0.86v10.98
		c0,0.9,0.73,1.65,1.66,1.65h8.47c0.92,0,1.65-0.74,1.65-1.65V22.25C33.81,22.75,33.27,23.18,32.64,23.53z M17.34,36.53
		c-0.04,0.01-0.08,0.01-0.12,0.01h-0.13c-0.49-0.01-0.94-0.08-1.39-0.2v6.97h-5.18V31.6l-0.94-1.7c-0.2-0.38-0.42-0.74-0.66-1.09
		c-0.32-0.46-0.66-0.9-1.05-1.31c-0.39,0.3-0.66,0.8-0.66,1.32v16.16c0,0.9,0.76,1.65,1.66,1.65h8.48c0.92,0,1.66-0.74,1.66-1.65
		v-8.66C18.48,36.45,17.92,36.53,17.34,36.53z"/>
	<path fill="#6168B0" d="M26.85,17.59l-1.15,0.62c-3.34,1.82-6.04,4.53-7.88,7.9l-0.61,1.12l-0.61-1.12
		c-1.83-3.37-4.53-6.07-7.9-7.9l-1.12-0.62l1.12-0.61c3.37-1.82,6.08-4.52,7.9-7.88l0.61-1.13l0.61,1.13
		c1.82,3.36,4.53,6.07,7.88,7.88L26.85,17.59z"/>
</g>
</svg>
