<?xml version="1.0" encoding="utf-8"?>
<!-- Generator: Adobe Illustrator 27.0.1, SVG Export Plug-In . SVG Version: 6.00 Build 0)  -->
<svg version="1.1" id="Layer_1" xmlns="http://www.w3.org/2000/svg" xmlns:xlink="http://www.w3.org/1999/xlink" x="0px" y="0px"
	 viewBox="0 0 51.83 49.24" enable-background="new 0 0 51.83 49.24" xml:space="preserve">
<g>
	<path fill="#6168B0" d="M34.3,13.97l-1.08,0.58c-2.85,1.54-5.18,3.87-6.73,6.73l-0.58,1.08l-0.58-1.06
		c-1.56-2.86-3.89-5.2-6.75-6.75l-1.08-0.58l1.08-0.6c2.88-1.56,5.21-3.87,6.75-6.72l0.58-1.08l0.58,1.08
		c1.56,2.86,3.87,5.18,6.73,6.73L34.3,13.97z"/>
	<path fill="#EFEEEF" d="M37.5,11.94l-2.7-1.46c-2.28-1.24-4.15-3.11-5.39-5.39l-1.47-2.75c-0.43-0.73-1.19-1.16-2.02-1.16h-0.05
		c-0.84,0.02-1.6,0.48-1.99,1.19l-1.46,2.71c-1.22,2.27-3.11,4.14-5.41,5.39l-2.73,1.47c-0.73,0.43-1.17,1.22-1.16,2.07
		c0.02,0.84,0.48,1.6,1.21,1.97l2.68,1.47c2.3,1.24,4.17,3.11,5.41,5.41l1.46,2.66c0.38,0.74,1.14,1.21,1.99,1.22h0.05
		c0.83,0,1.59-0.45,2.04-1.21l1.46-2.68c1.26-2.32,3.11-4.19,5.39-5.41l2.7-1.46c0.73-0.4,1.19-1.14,1.21-1.99
		C38.72,13.18,38.28,12.38,37.5,11.94z M33.23,14.55c-2.85,1.54-5.18,3.87-6.73,6.73l-0.58,1.08l-0.58-1.06
		c-1.56-2.86-3.89-5.2-6.75-6.75l-1.08-0.58l1.08-0.6c2.88-1.56,5.21-3.87,6.75-6.72l0.58-1.08l0.58,1.08
		c1.56,2.86,3.87,5.18,6.73,6.73l1.08,0.58L33.23,14.55z M37.1,27.97l-1.7-0.66c-1.37-0.55-2.95-0.41-4.22,0.36
		c-0.08,0.05-0.15,0.1-0.21,0.17l-1.59,1.37c-1.97,1.72-4.95,1.72-6.92,0l-1.59-1.37c-0.07-0.07-0.13-0.12-0.21-0.17
		c-1.27-0.78-2.85-0.91-4.22-0.36l-1.7,0.66c-5.77,2.25-9.5,7.71-9.5,13.92c0,3.41,2.76,6.17,6.17,6.17h29.02
		c3.41,0,6.17-2.76,6.17-6.17C46.6,35.68,42.87,30.22,37.1,27.97z M40.43,44.75H11.4c-1.57,0-2.86-1.29-2.86-2.86
		c0-4.83,2.9-9.08,7.4-10.84l1.7-0.66c0.17-0.07,0.35-0.1,0.53-0.1c0.23,0,0.45,0.05,0.66,0.15l1.46,1.27c3.21,2.8,8.04,2.8,11.25,0
		L33,30.43c0.38-0.18,0.81-0.2,1.19-0.05l1.7,0.66c4.5,1.75,7.4,6.01,7.4,10.84C43.29,43.46,42,44.75,40.43,44.75z M27.98,39.01
		c0,1.14-0.93,2.07-2.07,2.07s-2.07-0.93-2.07-2.07c0-1.14,0.93-2.07,2.07-2.07S27.98,37.86,27.98,39.01z"/>
</g>
</svg>
