<?xml version="1.0" encoding="utf-8"?>
<!-- Generator: Adobe Illustrator 27.0.1, SVG Export Plug-In . SVG Version: 6.00 Build 0)  -->
<svg version="1.1" id="Layer_1" xmlns="http://www.w3.org/2000/svg" xmlns:xlink="http://www.w3.org/1999/xlink" x="0px" y="0px"
	 viewBox="0 0 51.83 49.24" enable-background="new 0 0 51.83 49.24" xml:space="preserve">
<g>
	<path fill="#6168B0" d="M34.34,14.23l-1.09,0.58c-2.85,1.56-5.18,3.89-6.73,6.77l-0.6,1.08l-0.6-1.08
		c-1.54-2.88-3.89-5.21-6.75-6.77l-1.09-0.58l1.09-0.6c2.88-1.56,5.21-3.89,6.75-6.73l0.6-1.09l0.6,1.09
		c1.54,2.86,3.87,5.18,6.73,6.73L34.34,14.23z"/>
	<path fill="#EFEEEF" d="M44.12,24.57v11.66c0,0.91-0.74,1.65-1.65,1.65c-0.91,0-1.65-0.74-1.65-1.65V24.57
		c0-0.68-0.56-1.24-1.26-1.24H37.5c-0.91,0-1.65-0.74-1.65-1.65c0-0.93,0.74-1.65,1.65-1.65h2.05
		C42.06,20.02,44.12,22.06,44.12,24.57z M14.33,20.02h-2.05c-2.51,0-4.57,2.04-4.57,4.55v11.66c0,0.91,0.74,1.65,1.65,1.65
		s1.65-0.74,1.65-1.65V24.57c0-0.68,0.56-1.24,1.26-1.24h2.05c0.91,0,1.65-0.74,1.65-1.65C15.99,20.75,15.24,20.02,14.33,20.02z
		 M38.74,14.28c-0.02,0.84-0.48,1.59-1.21,1.99l-2.71,1.46c-2.28,1.24-4.15,3.11-5.39,5.43l-1.47,2.7
		c-0.45,0.76-1.21,1.21-2.05,1.21h-0.05c-0.83-0.02-1.59-0.5-1.97-1.22l-1.46-2.68c-1.26-2.3-3.13-4.17-5.43-5.43l-2.7-1.47
		c-0.73-0.36-1.19-1.13-1.21-1.97c-0.02-0.84,0.43-1.64,1.16-2.07l2.73-1.49c2.32-1.26,4.2-3.11,5.43-5.39l1.47-2.71
		c0.38-0.73,1.14-1.19,1.97-1.21c0.86-0.05,1.65,0.41,2.07,1.16l1.51,2.76c1.22,2.28,3.09,4.15,5.39,5.39l2.71,1.47
		C38.31,12.64,38.75,13.44,38.74,14.28z M34.34,14.23l-1.09-0.6c-2.86-1.56-5.2-3.87-6.73-6.73l-0.6-1.09l-0.6,1.09
		c-1.54,2.85-3.87,5.18-6.75,6.73l-1.09,0.6l1.09,0.58c2.86,1.56,5.21,3.89,6.75,6.77l0.6,1.08l0.6-1.08
		c1.56-2.88,3.89-5.21,6.73-6.77L34.34,14.23z M25.92,29.95c-0.91,0-1.65,0.73-1.65,1.65v4.63c0,0.91,0.74,1.65,1.65,1.65
		c0.91,0,1.65-0.74,1.65-1.65V31.6C27.57,30.68,26.83,29.95,25.92,29.95z M31.01,40.14c-0.65-0.65-1.69-0.65-2.33,0l-3.59,3.59
		l-1.31-1.31c-0.65-0.65-1.7-0.65-2.35,0c-0.65,0.65-0.65,1.69,0,2.33l2.48,2.48c0.33,0.33,0.74,0.5,1.17,0.5s0.84-0.17,1.17-0.5
		l4.75-4.75C31.66,41.84,31.66,40.8,31.01,40.14z M14.88,40.14c-0.65-0.65-1.69-0.65-2.33,0l-3.59,3.59l-1.31-1.31
		c-0.65-0.65-1.7-0.65-2.35,0c-0.65,0.65-0.65,1.69,0,2.33l2.48,2.48c0.33,0.33,0.74,0.5,1.17,0.5s0.84-0.17,1.17-0.5l4.75-4.75
		C15.52,41.84,15.52,40.8,14.88,40.14z M45.22,43.7l1.31-1.31c0.65-0.65,0.65-1.7,0-2.35c-0.65-0.65-1.7-0.65-2.35,0l-1.31,1.31
		l-1.31-1.31c-0.65-0.65-1.7-0.65-2.35,0c-0.65,0.65-0.65,1.7,0,2.35l1.31,1.31L39.22,45c-0.65,0.65-0.65,1.7,0,2.35
		c0.33,0.31,0.74,0.48,1.17,0.48s0.84-0.17,1.17-0.48l1.31-1.31l1.31,1.31c0.33,0.31,0.74,0.48,1.17,0.48s0.84-0.17,1.17-0.48
		c0.65-0.65,0.65-1.7,0-2.35L45.22,43.7z"/>
</g>
</svg>
