<?xml version="1.0" encoding="utf-8"?>
<!-- Generator: Adobe Illustrator 27.0.1, SVG Export Plug-In . SVG Version: 6.00 Build 0)  -->
<svg version="1.1" id="Layer_1" xmlns="http://www.w3.org/2000/svg" xmlns:xlink="http://www.w3.org/1999/xlink" x="0px" y="0px"
	 viewBox="0 0 51.83 49.24" enable-background="new 0 0 51.83 49.24" xml:space="preserve">
<g>
	<path fill="#6168B0" d="M44.65,16.57l-0.94,0.51c-2.76,1.49-5.01,3.74-6.52,6.54l-0.51,0.94l-0.51-0.94
		c-1.51-2.78-3.76-5.03-6.54-6.54l-0.94-0.51l0.94-0.51c2.78-1.51,5.05-3.77,6.54-6.52l0.51-0.94l0.51,0.94
		c1.49,2.76,3.76,5.01,6.52,6.52L44.65,16.57z"/>
	<path fill="#1A1349" d="M6.61,14.1h-2.2c-0.91,0-1.65,0.74-1.65,1.65c0,0.91,0.74,1.65,1.65,1.65h2.2c0.93,0,1.65-0.74,1.65-1.65
		C8.26,14.85,7.53,14.1,6.61,14.1z M9.27,20.62C8.96,19.76,8,19.33,7.15,19.64l-3.31,1.21c-0.86,0.31-1.31,1.26-0.99,2.12
		c0.25,0.68,0.88,1.09,1.56,1.09c0.18,0,0.38-0.03,0.56-0.1l3.31-1.21C9.14,22.44,9.58,21.48,9.27,20.62z M8.28,8.77L4.97,7.57
		C4.13,7.25,3.17,7.7,2.85,8.54c-0.31,0.86,0.13,1.82,0.99,2.13l3.31,1.21c0.18,0.07,0.38,0.1,0.56,0.1c0.68,0,1.31-0.41,1.56-1.09
		C9.58,10.03,9.14,9.09,8.28,8.77z M47.89,14.55l-2.61-1.41c-2.2-1.19-3.99-2.98-5.18-5.18L38.66,5.3
		c-0.41-0.73-1.26-1.16-2.04-1.14c-0.83,0.02-1.59,0.48-1.97,1.19L34.6,5.43c-1.77-1.56-3.92-2.68-6.29-3.19
		c-4.37-0.94-8.84,0.08-12.24,2.85c-3.43,2.75-5.38,6.83-5.38,11.22c0,3.11,0.96,6.06,2.8,8.55c1.95,2.63,3.13,5.46,3.46,8.24
		c-1.41,0.69-2.38,2.15-2.38,3.84v0.43c0,2.37,1.92,4.29,4.29,4.29h0.18c0.21,3.18,2.85,5.69,6.07,5.69s5.87-2.51,6.09-5.69h0.18
		c2.35,0,4.27-1.92,4.27-4.29v-0.43c0-1.69-0.98-3.14-2.38-3.84c0.2-1.74,0.71-3.46,1.52-5.11c0.4,0.6,1.09,0.98,1.84,0.99h0.05
		c0.81,0,1.57-0.45,2.02-1.19l1.41-2.6c1.19-2.22,2.99-4.02,5.18-5.2l2.61-1.41c0.71-0.4,1.17-1.14,1.19-1.97
		C49.1,15.77,48.65,14.99,47.89,14.55z M25.11,44.03c-1.39,0-2.56-1.04-2.76-2.38h5.53C27.67,42.99,26.51,44.03,25.11,44.03z
		 M32.34,37.36c0,0.55-0.43,0.98-0.96,0.98H18.85c-0.53,0-0.98-0.43-0.98-0.98v-0.43c0-0.18,0.05-0.35,0.13-0.48
		c0.17-0.3,0.48-0.5,0.84-0.5h12.53c0.36,0,0.66,0.2,0.83,0.5c0.08,0.13,0.13,0.3,0.13,0.48V37.36z M29.97,32.65h-9.73
		c-0.41-3.34-1.8-6.68-4.09-9.76C14.75,20.97,14,18.7,14,16.3c0-3.38,1.51-6.52,4.14-8.65c1.99-1.6,4.45-2.45,7-2.45
		c0.81,0,1.64,0.08,2.47,0.26c2.07,0.43,3.9,1.51,5.38,2.95c-1.16,1.99-2.86,3.61-4.93,4.73l-2.63,1.42
		c-0.73,0.43-1.17,1.21-1.16,2.05c0.02,0.83,0.48,1.59,1.19,1.95l2.6,1.42c2,1.08,3.67,2.66,4.85,4.6
		C31.28,27.16,30.3,29.89,29.97,32.65z M43.7,17.08c-2.76,1.49-5.01,3.74-6.52,6.54l-0.51,0.94l-0.51-0.94
		c-1.51-2.78-3.76-5.03-6.54-6.54l-0.94-0.51l0.94-0.51c2.78-1.51,5.05-3.77,6.54-6.52l0.51-0.94l0.51,0.94
		c1.49,2.76,3.76,5.01,6.52,6.52l0.94,0.51L43.7,17.08z"/>
</g>
</svg>
