<?xml version="1.0" encoding="utf-8"?>
<!-- Generator: Adobe Illustrator 27.0.1, SVG Export Plug-In . SVG Version: 6.00 Build 0)  -->
<svg version="1.1" id="Layer_1" xmlns="http://www.w3.org/2000/svg" xmlns:xlink="http://www.w3.org/1999/xlink" x="0px" y="0px"
	 viewBox="0 0 51.83 49.24" enable-background="new 0 0 51.83 49.24" xml:space="preserve">
<g>
	<path fill="#6168B0" d="M35.1,32.05l-1.8,0.96c-3.34,1.82-6.06,4.53-7.88,7.88l-0.96,1.8l-0.98-1.8c-1.8-3.33-4.53-6.06-7.91-7.88
		l-1.79-0.96l1.79-0.98c3.36-1.82,6.09-4.55,7.91-7.91l0.98-1.79l0.96,1.79c1.84,3.38,4.55,6.11,7.89,7.91L35.1,32.05z"/>
	<path fill="#EFEEEF" d="M18.01,14.03l-1.69-0.91c-1.31-0.71-2.38-1.79-3.11-3.13l-0.93-1.7c-0.38-0.65-1.06-1.04-1.8-1.04
		c-0.02,0-0.02,0-0.03,0C9.68,7.27,9.01,7.68,8.67,8.32L7.76,10c-0.73,1.32-1.8,2.42-3.13,3.13l-1.65,0.89
		c-0.66,0.35-1.08,1.04-1.09,1.79c-0.02,0.76,0.38,1.46,1.06,1.85l1.69,0.93c1.32,0.71,2.42,1.79,3.13,3.09l0.89,1.67
		c0.35,0.66,1.03,1.09,1.79,1.11c0.02,0,0.02,0,0.03,0c0.74,0,1.44-0.41,1.82-1.09l0.91-1.69c0.71-1.31,1.79-2.38,3.11-3.09
		l1.74-0.94c0.65-0.38,1.04-1.08,1.03-1.84C19.07,15.06,18.65,14.38,18.01,14.03z M10.48,19.77c-0.94-1.62-2.3-2.96-3.94-3.92
		c1.64-0.96,2.99-2.32,3.94-3.95c0.96,1.64,2.32,2.99,3.94,3.95C12.79,16.8,11.44,18.15,10.48,19.77z M38.09,29.9l-3.21-1.74
		c-2.76-1.49-5.03-3.77-6.55-6.57l-1.75-3.24c-0.45-0.76-1.24-1.21-2.18-1.22c-0.88,0.02-1.69,0.51-2.08,1.26l-1.74,3.21
		c-1.51,2.78-3.77,5.06-6.57,6.57l-3.18,1.74c-0.78,0.4-1.27,1.21-1.29,2.08c-0.02,0.89,0.46,1.74,1.27,2.2L14,35.92
		c2.8,1.52,5.08,3.79,6.57,6.54l1.74,3.21c0.4,0.78,1.21,1.27,2.08,1.29h0.05c0.88,0,1.69-0.46,2.15-1.27l1.74-3.23
		c1.51-2.76,3.77-5.03,6.54-6.54l3.28-1.75c0.78-0.46,1.24-1.29,1.22-2.18C39.35,31.11,38.87,30.31,38.09,29.9z M33.29,33.01
		c-3.34,1.82-6.06,4.53-7.88,7.88l-0.96,1.8l-0.98-1.8c-1.8-3.33-4.53-6.06-7.91-7.88l-1.79-0.96l1.79-0.98
		c3.36-1.82,6.09-4.55,7.91-7.91l0.98-1.79l0.96,1.79c1.84,3.38,4.55,6.11,7.89,7.91l1.79,0.98L33.29,33.01z M48.78,11.35
		l-2.27-1.22c-1.87-1.01-3.39-2.55-4.42-4.43l-1.24-2.3c-0.41-0.69-1.19-1.17-1.97-1.11c-0.81,0.02-1.54,0.46-1.9,1.14l-1.22,2.27
		c-1.01,1.89-2.55,3.41-4.43,4.43l-2.23,1.22c-0.71,0.36-1.16,1.09-1.18,1.89c-0.02,0.81,0.41,1.57,1.16,2l2.25,1.22
		c1.89,1.03,3.43,2.55,4.43,4.42l1.22,2.25c0.36,0.71,1.09,1.16,1.9,1.17c0.02,0,0.02,0,0.03,0c0.79,0,1.54-0.43,1.95-1.16
		l1.22-2.27c1.01-1.87,2.55-3.41,4.42-4.42l2.32-1.26c0.69-0.4,1.12-1.16,1.11-1.97C49.92,12.44,49.48,11.72,48.78,11.35z
		 M44.94,13.55c-2.45,1.32-4.43,3.31-5.76,5.76l-0.25,0.46l-0.26-0.46c-1.32-2.43-3.31-4.43-5.77-5.76l-0.46-0.26l0.46-0.25
		c2.45-1.32,4.45-3.33,5.77-5.77l0.26-0.48l0.25,0.48c1.34,2.47,3.33,4.45,5.76,5.77l0.48,0.25L44.94,13.55z"/>
</g>
</svg>
